<?xml version="1.0"?>
<svg width="319" height="32" xmlns="http://www.w3.org/2000/svg" xmlns:svg="http://www.w3.org/2000/svg" clip-rule="evenodd">
 <g class="layer">
  <title>Layer 1</title>
  <path d="m239.62,0.248c1.152,0 1.395,0.691 1.395,1.272l0,2.139l-2.202,0c-1.102,0 -1.333,-0.658 -1.333,-1.21l0,-2.199l2.14,0l0,-0.002zm-0.187,7.008c0.913,0 1.396,0.46 1.396,1.333l0,17.954l-1.985,0l0,-0.07c-0.711,-0.064 -1.178,-0.58 -1.178,-1.325l0,-17.892l1.767,0zm-105.068,13.999c0.68,0.617 0.875,0.874 0.882,0.885l0.079,0.105l-0.09,0.095c-3.062,3.207 -6.137,4.575 -10.283,4.575c-7.442,0 -13.055,-5.772 -13.055,-13.426c0,-7.564 5.762,-13.489 13.117,-13.489c5.048,0 7.833,1.988 10.091,4.136l0.11,0.104l-0.102,0.112c-0.005,0.006 -0.567,0.63 -1.121,1.184c-0.63,0.701 -1.486,0.529 -2.01,0.07c-2.138,-1.794 -4.372,-2.63 -7.03,-2.63c-5.569,0 -9.768,4.467 -9.768,10.388c0,5.894 4.291,10.512 9.768,10.512c2.76,0 4.834,-0.78 7.157,-2.693c0.572,-0.508 1.533,-0.65 2.255,0.072zm47.145,-14.495c4.457,0 7.225,2.982 7.225,7.783l0,11.876l-1.644,0c-1.284,0 -1.457,-0.8 -1.457,-1.582l0,-9.674c0,-3.528 -1.73,-5.55 -4.744,-5.55c-2.547,0 -5.117,1.773 -5.117,5.736l0,11.07l-1.705,0c-0.9,0 -1.396,-0.496 -1.396,-1.396l0,-9.922c0,-3.437 -1.773,-5.488 -4.743,-5.488c-2.965,0 -5.116,2.438 -5.116,5.798l0,9.612c0,1.115 -0.489,1.334 -1.334,1.334l-1.767,0l0,-19.287l1.705,0c0.926,0 1.457,0.53 1.457,1.457l0,1.363c1.19,-1.67 2.87,-3.253 5.985,-3.253c3.62,0 5.349,2.174 6.1,3.633c1.677,-2.36 3.823,-3.51 6.55,-3.51l0.001,0zm22.388,0.062c4.464,0 9.209,3.51 9.209,10.015c0,6.506 -4.745,10.016 -9.21,10.016c-2.877,0 -5.203,-1.215 -7.1,-3.712l0,9.17l-1.767,0c-0.873,0 -1.334,-0.483 -1.334,-1.396l0,-23.721l1.52,0c1.034,0 1.58,0.525 1.58,1.519l0,1.99c1.899,-2.611 4.226,-3.881 7.102,-3.881zm5.984,10.015c0,-4.743 -3.292,-7.224 -6.543,-7.224c-3.307,0 -6.728,2.679 -6.728,7.162c0,4.522 3.42,7.225 6.728,7.225c3.853,0 6.543,-2.945 6.543,-7.163zm51.411,-8.247c0,-0.94 0.861,-1.458 1.457,-1.458l1.705,0l0,15.845c0,5.971 -3.56,9.395 -9.767,9.395c-3.252,0 -6.181,-0.907 -8.71,-2.695l-0.108,-0.077l0.06,-0.119c0.007,-0.015 0.194,-0.387 0.688,-1.19c0.264,-0.43 0.603,-0.63 0.98,-0.625c0.311,0.008 0.656,0.143 1.156,0.45a12.046,12.046 0 0 0 5.872,1.528c4.276,0 6.728,-2.408 6.728,-6.605l0,-1.789c-2.031,2.475 -4.42,3.68 -7.286,3.68c-4.404,0 -9.085,-3.185 -9.085,-9.086c0,-2.632 1,-5.013 2.817,-6.703c1.67,-1.553 3.954,-2.444 6.268,-2.444c3.646,0 5.912,1.838 7.225,3.53l0,-1.637zm0.124,7.379c0,-4.129 -3.499,-6.357 -6.79,-6.357c-3.72,0 -6.42,2.648 -6.42,6.295c0,3.624 2.76,6.356 6.42,6.356c3.338,0 6.79,-2.354 6.79,-6.294zm17.644,-9.147c4.501,0 7.41,3.03 7.41,7.72l0,11.938l-1.892,0c-0.867,0 -1.27,-0.422 -1.27,-1.332l0,-9.923c0,-3.476 -1.913,-5.55 -5.117,-5.55c-3.268,0 -5.55,2.384 -5.55,5.798l0.063,11.007l-3.164,0l0,-19.286l1.705,0c0.726,0 1.458,0.412 1.458,1.333l0,1.642c1.514,-2.222 3.65,-3.347 6.357,-3.347zm-54.326,0.124c5.277,0 8.217,2.74 8.28,7.719l0,11.754l-1.706,0c-0.91,0 -1.334,-0.404 -1.334,-1.271l0,-1.305c-1.699,1.972 -4.016,3.01 -6.728,3.01c-4.964,0 -7.226,-3.167 -7.226,-6.109c0,-3.882 3.018,-6.108 8.28,-6.108l3.193,0l0,1.085c0,0.897 -0.456,1.333 -1.395,1.333l-1.55,0c-3.46,0 -5.365,1.289 -5.365,3.628c0,2.493 2.395,3.628 4.62,3.628c3.576,0 6.17,-2.1 6.17,-4.992l0,-4.59c0,-3.22 -1.948,-4.992 -5.487,-4.992c-1.595,0 -3.032,0.284 -4.657,0.92c-0.591,0.197 -1.31,0.18 -1.565,-0.459a52.54,52.54 0 0 1 -0.56,-1.494l-0.048,-0.134l0.13,-0.06c2.38,-1.081 4.523,-1.563 6.948,-1.563zm-78.078,0c5.276,0 8.217,2.74 8.28,7.719l0,11.754l-1.706,0c-0.91,0 -1.334,-0.404 -1.334,-1.271l0,-1.305c-1.698,1.972 -4.015,3.01 -6.728,3.01c-4.964,0 -7.225,-3.167 -7.225,-6.109c0,-3.882 3.018,-6.108 8.28,-6.108l3.17,0l0,1.085c0,0.897 -0.457,1.333 -1.395,1.333l-1.528,0c-3.46,0 -5.364,1.289 -5.364,3.628c0,2.493 2.395,3.628 4.62,3.628c3.576,0 6.17,-2.1 6.17,-4.992l0,-4.59c0,-3.22 -1.949,-4.992 -5.488,-4.992c-1.595,0 -3.031,0.284 -4.657,0.92c-0.594,0.199 -1.31,0.18 -1.564,-0.459a49.66,49.66 0 0 1 -0.56,-1.494l-0.05,-0.136l0.133,-0.058c1.841,-0.812 3.956,-1.563 6.946,-1.563zm171.69,7.162c0.698,0.49 1.054,1.096 1.054,1.799l0,0.349c-0.008,0.543 -0.203,1.307 -1.054,1.946l-0.003,0.002c-0.41,0.293 -4.583,3.184 -9.001,6.246c-4.322,2.995 -9.192,6.37 -9.787,6.791l0,0.487l-0.289,-0.486c-0.014,-0.025 -0.027,-0.046 -0.012,-0.08l-0.009,0l0,-2.542c0,-0.867 0.096,-1.284 1.061,-1.927c0.806,-0.518 13.564,-9.365 15.257,-10.537c-1.68,-1.167 -14.274,-9.91 -15.137,-10.542l-0.102,-0.074c-0.638,-0.462 -1.14,-0.826 -1.14,-1.788l0,-3.026l0.242,0.17c0.753,0.524 18.427,12.843 18.92,13.212zm-11.047,3.422c-0.437,0 -0.87,-0.152 -1.326,-0.455c-1.104,-0.737 -6.767,-4.675 -6.824,-4.715l-0.066,-0.046l0,-1.942c0,-0.446 0.192,-0.799 0.529,-0.97c0.361,-0.184 0.812,-0.124 1.206,0.162c0.852,0.548 9.092,6.266 9.175,6.325l0.187,0.129l-0.19,0.127s-0.557,0.371 -1.175,0.803c-0.529,0.388 -1.024,0.582 -1.516,0.582zm-263.044,4.53c0.605,0.605 0.915,0.855 0.918,0.858l0.125,0.1l-0.104,0.122c-1.507,1.757 -3.755,3.775 -7.808,3.775c-5.454,0 -9.892,-4.493 -9.892,-10.016c0,-5.651 4.345,-10.077 9.892,-10.077c3.117,0 5.486,1.048 7.68,3.398l0.096,0.104l-0.095,0.105c-0.345,0.382 -0.698,0.757 -1.06,1.123c-0.608,0.606 -1.246,0.571 -2.07,-0.115c-1.112,-0.902 -2.533,-1.825 -4.613,-1.825c-3.703,0 -6.605,3.174 -6.605,7.225c0,4.052 2.983,7.226 6.79,7.226c1.757,0 3.37,-0.655 4.796,-1.945c0.419,-0.336 1.29,-0.718 1.95,-0.057l0,-0.001zm20.604,-21.811c0.848,0 1.395,0.572 1.395,1.458l0,1.953l-2.201,0c-1.102,0 -1.334,-0.658 -1.334,-1.21l0,-2.2l2.14,0l0,-0.001zm-0.248,7.008c0.913,0 1.395,0.46 1.395,1.333l0,17.954l-1.984,0l0,-0.07c-0.712,-0.064 -1.179,-0.58 -1.179,-1.325l0,-17.893l1.768,0l0,0.001zm20.384,1.023c0.305,-0.732 0.859,-1.087 1.693,-1.087l2.16,0l-0.095,0.217c-0.076,0.174 -7.57,17.373 -7.877,18.048c-0.325,0.716 -0.794,1.022 -1.567,1.022l-0.373,0c-0.798,0 -1.294,-0.153 -1.631,-0.963c-0.305,-0.672 -7.8,-17.995 -7.875,-18.17l-0.094,-0.217l2.22,0c0.847,0 1.438,0.388 1.756,1.15c0.225,0.675 4.924,12.076 5.81,14.227c0.888,-2.15 5.594,-13.557 5.873,-14.227zm19.43,7.41c0.18,0 0.313,-0.048 0.39,-0.143c0.108,-0.127 0.134,-0.358 0.077,-0.668c-0.256,-3.194 -2.562,-5.33 -5.739,-5.33c-3.152,0 -5.613,2.595 -5.985,6.31c-0.001,0.011 -0.061,0.439 -0.061,1.039c0,0.54 0.06,0.967 0.06,0.971c0.396,3.78 3.025,6.316 6.544,6.316c2.043,0 3.713,-0.615 5.105,-1.882c0.37,-0.37 1.073,-0.599 1.814,-0.007c0.5,0.438 0.934,0.81 0.934,0.81l0.122,0.104l-0.108,0.118c-2.261,2.48 -4.706,3.586 -7.929,3.586c-5.497,0 -9.643,-4.333 -9.643,-10.077c0,-5.746 3.986,-10.078 9.271,-10.078c4.825,0 8.376,3.27 8.837,8.14c0.077,1.041 -0.158,1.887 -0.68,2.449c-0.506,0.545 -1.268,0.822 -2.265,0.822c-1.696,0 -5.79,0.006 -9.316,0.062l-0.157,0.002l0,-1.212c0,-0.834 0.498,-1.333 1.333,-1.333l7.396,0l0,0.001zm-89.162,-14.485c0.368,0.798 11.178,24.814 11.288,25.056l0.098,0.219l-1.852,0c-0.394,0 -1.592,0 -2.064,-1.021c-0.342,-0.743 -8.25,-18.692 -9.41,-21.325l-5.652,12.672l8.366,0l0,1.396c0,0.909 -0.66,1.519 -1.643,1.519l-7.978,0c-0.301,0.664 -2.16,4.751 -2.502,5.491c-0.48,0.892 -1.04,1.269 -1.877,1.269l-2.038,0l0.098,-0.22c0.11,-0.244 11.042,-24.563 11.287,-25.115c0.34,-0.614 0.887,-0.96 1.506,-0.96l0.744,0c0.837,0 1.247,0.257 1.627,1.016l0.002,0.004l0,-0.001zm42.98,22.545c0.175,0.13 0.383,0.392 0.383,0.9c0,0.683 -0.06,1.234 -0.062,1.258l-0.01,0.083l-0.075,0.038c-0.984,0.493 -2.557,0.823 -3.915,0.823c-3.539,0 -5.488,-1.95 -5.488,-5.489l0,-21.053l1.52,0c0.96,0 1.58,0.572 1.58,1.458l0,5.488l4.373,0c0.791,0 1.643,0.456 1.643,1.457l0,1.333l-6.015,0l0.062,10.884c0,1.996 1.012,3.008 3.007,3.008c0.655,0 1.125,-0.115 1.82,-0.304c0.46,-0.138 0.89,-0.096 1.177,0.117l0,-0.001z" fill="#356ae6" id="svg_1"/>
 </g>
</svg>