<?xml version="1.0"?>
<svg width="600" height="119" xmlns="http://www.w3.org/2000/svg" xmlns:svg="http://www.w3.org/2000/svg">
 <style type="text/css">.st0{fill:#333333;}
	.st1{fill:#246BE8;}</style>
 <g class="layer">
  <title>Layer 1</title>
  <path class="st0" d="m117.5,108l47.4,-93.8c1,-2 1.6,-3 2.6,-3l0.3,0c1,0 1.3,1 2.6,3l47.7,94.1c1,1.6 0,3 -2,3l-13.8,0c-2,0 -2.6,-0.7 -3.9,-3l-8.9,-18.4l-43.4,0l-8.9,18.4c-1.3,2.3 -2,3 -3.9,3l-13.8,0c-2,0 -2.6,-1.7 -2,-3.3m66.2,-33.6l-15.5,-32.9l-0.3,0l-15.5,32.9l31.3,0zm12.2,-63.5c2.3,0 3.3,0.7 3.9,3l28,58.9l24.4,-58.9c0,-0.3 0.3,-1 0.3,-1c0.7,-1.3 1,-1.6 2,-1.6l2.3,0c1,0 1.3,0.7 2,1.6c0.3,0.3 0.3,0.7 0.7,1l24,58.9l28.3,-58.9c0.7,-2.3 1.6,-3 3.6,-3l14.5,0c2.3,0 2.6,0.7 1.6,3l-46.8,94.1c-1,2 -1.3,3 -2.3,3l-1.3,0c-1,0 -1.3,-1 -2.3,-3l-23.4,-57.6l-23.3,57.6c-1,2 -1.3,3 -2.3,3l-1.3,0c-1,0 -1.3,-1 -2.3,-3l-46.1,-94.1c-1,-2.3 -1,-3 1.3,-3c0,0 14.5,0 14.5,0zm155,26c23,0 34.9,18.4 34.9,39.5c0,2.6 -0.3,3.3 -3,3.3l-51.3,0c2,12.2 11.5,17.4 20.4,17.4c4.6,0 11.2,-1 18.8,-4.9c1.3,-0.7 2,-1 2.6,-1s1,0.3 2,1.3l4.3,5.3c1.3,2 1.6,2.6 0.3,3.9c-6.6,6.6 -18.1,9.9 -28.3,9.9c-21.1,0 -37.5,-16.8 -37.5,-37.2s16.4,-37.5 36.8,-37.5m17.4,30.9c-1,-8.6 -6.6,-17.1 -17.8,-17.1c-9.5,0 -16.8,7.6 -18.8,17.1l36.6,0zm41.8,-18.7c2,-3.6 9.9,-12.2 23,-12.2c18.8,0 32.2,16.8 32.2,37.2c0,19.7 -13.2,37.2 -32.2,37.2c-13.2,0 -20.7,-6.9 -26,-13.2l-2,8.6c-1.3,2 -2,3 -3.6,3l-5.3,0c-2.3,0 -3,-0.7 -3,-3l0.3,-103.7c0,-2.3 0.7,-3 3,-3l10.9,0c2.3,0 3,0.7 3,3l-0.3,46.1zm38.5,25c0,-12.2 -8.2,-22 -19.1,-22c-11.2,0 -19.4,10.2 -19.4,22c0,12.2 8.2,22.4 19.4,22.4c10.9,-0.4 19.1,-9.9 19.1,-22.4m60.5,-37.2c23,0 34.9,18.4 34.9,39.5c0,2.6 -0.3,3.3 -3,3.3l-51.3,0c2,12.2 11.5,17.4 20.4,17.4c4.6,0 11.2,-1 18.8,-4.9c1.3,-0.7 2,-1 2.6,-1s1,0.3 2,1.3l4.3,5.3c1.3,2 1.6,2.6 0.3,3.9c-6.6,6.6 -18.1,9.9 -28.3,9.9c-21.1,0 -37.5,-16.8 -37.5,-37.2s16.4,-37.5 36.8,-37.5m17.5,30.9c-1,-8.6 -6.6,-17.1 -17.8,-17.1c-9.5,0 -16.8,7.6 -18.8,17.1l36.6,0zm41.4,8.6l0,31.9c0,2.3 -0.7,3 -3,3l-10.9,0c-2.3,0 -3,-0.7 -3,-3l0,-65.5c0,-2.3 0.7,-3 3,-3l5.3,0c2,0 2.6,1 3.6,3l3.3,10.2c3.9,-7.2 14.2,-15.1 30.9,-15.1c2.6,0 3,1 2.6,2.6l-1.6,10.9c-0.3,2.3 -1,3 -3.3,3c-15.7,0.6 -26.9,10.8 -26.9,22" id="svg_1"/>
  <path class="st1" d="m65.9,5c-2.6,0 -5.3,1.3 -6.9,3.3c-11.8,15.1 -19.1,32.9 -22,50.7c-3,15.5 -1.6,35.2 3.6,53.6c1,3.6 3,6.6 17.8,6.6l0,0l0,0c40.1,0 58.2,-15.8 58.2,-56.9l0,0c0,-40.5 -17.2,-57.3 -50.7,-57.3m-1,108.9c-2.3,1.3 -5.6,0.3 -6.6,-2l0,0l0,0c-8.2,-15.5 -10.9,-32.9 -7.6,-50.3s11.8,-32.9 25,-44.8l0,0l0,0c2,-1.6 5.3,-1.6 6.9,0.3c2,2 1.6,4.9 -0.3,6.9l0,0l0,0c-11.2,9.9 -19.1,23.4 -21.7,39.2c-3,15.5 0,30.9 6.6,44.1l0,0c0,0 0,0 0,0.3c1,2 0,5 -2.3,6.3m30.3,-73.1l0,0c-8.2,6.6 -14.2,15.1 -16.1,25.3c-2,10.2 0,20.4 5.3,29l0,0c0,0 0,0 0,0.3c1,1.3 0.3,3.3 -1.3,3.9c-1.6,0.7 -3.6,0.3 -4.6,-1.3l0,0l0,0c-5.9,-9.5 -8.2,-21.1 -5.9,-32.6c2.3,-11.5 8.9,-21.4 18.1,-29l0,0c0,0 0,0 0.3,-0.3c1.3,-1 3.6,-1 4.6,0.3c1.2,1.5 0.9,3.5 -0.4,4.4m-77.4,64.5c0.3,2 -2,3.3 -3.6,2c-8.9,-7.9 -14.2,-18.1 -14.2,-45.4l0,0c0,-35.2 13.8,-50.3 32.6,-55.3c2,-0.7 3.3,1.6 2.3,3c-8.6,14.2 -14.5,29.6 -17.4,46.1c-3,16.4 -2.6,33.5 0.3,49.6z" id="svg_2"/>
 </g>
</svg>