<?xml version="1.0"?>
<svg width="332" height="57" xmlns="http://www.w3.org/2000/svg" xmlns:svg="http://www.w3.org/2000/svg">
 <style type="text/css">.st0{fill-rule:evenodd;clip-rule:evenodd;fill:#1856ED;}
	.st1{fill-rule:evenodd;clip-rule:evenodd;fill:#FF9E1A;}</style>
 <title>Group 40 Copy 20</title>
 <desc>Created with Sketch.</desc>
 <g class="layer">
  <title>Layer 1</title>
  <g id="svg_1">
   <path class="st0" d="m230.3,35c-0.5,-0.7 -1.1,-0.9 -2,-0.4c-1.3,0.7 -2.9,1.2 -4.5,1.2c-4.5,0 -7.6,-3.1 -7.6,-7.5c0,-4.4 3.1,-7.5 7.6,-7.5c1.5,0 3.2,0.4 4.5,1.2c0.9,0.5 1.5,0.4 2,-0.4l0.5,-0.7c0.5,-0.8 0.4,-1.5 -0.3,-2c-2,-1.3 -4.1,-1.9 -6.6,-1.9c-3.5,0 -6.6,1.2 -8.8,3.4c-2.1,2.1 -3.2,4.9 -3.2,8c0,3.1 1.1,5.9 3.2,8c2.2,2.2 5.2,3.4 8.8,3.4c2.6,0 4.7,-0.6 6.8,-2c0.6,-0.5 0.7,-1.1 0.2,-1.9l-0.6,-0.9z" id="svg_2"/>
   <path class="st0" d="m240.9,22.9c-4.8,0 -8.6,3.7 -8.6,8.3c0,4.7 3.8,8.4 8.6,8.4c4.9,0 8.7,-3.7 8.7,-8.4c-0.1,-4.6 -4,-8.3 -8.7,-8.3zm0,13.1c-2.6,0 -4.6,-2.1 -4.6,-4.7c0,-2.7 2,-4.8 4.6,-4.8c2.6,0 4.6,2.1 4.6,4.8c-0.1,2.6 -2.1,4.7 -4.6,4.7z" id="svg_3"/>
   <path class="st0" d="m261.3,22.9c-2.3,0 -4.1,1 -4.9,2.7l0,-0.9c0,-0.9 -0.5,-1.4 -1.4,-1.4l-1.4,0c-0.9,0 -1.4,0.5 -1.4,1.4l0,13.2c0,0.9 0.5,1.4 1.4,1.4l1.4,0c0.9,0 1.4,-0.5 1.4,-1.4l0,-6.4c0,-1.7 0.8,-5 4,-5c1.7,0 2.7,1.4 2.7,3.8l0,7.5c0,0.9 0.5,1.4 1.4,1.4l1.4,0c0.9,0 1.4,-0.5 1.4,-1.4l0,-7.7c0,-4.5 -2.3,-7.2 -6,-7.2z" id="svg_4"/>
   <path class="st0" d="m298.5,23.2l-1.4,0c-0.9,0 -1.4,0.5 -1.4,1.4l0,0.7c-1.2,-1.6 -3.1,-2.5 -5.2,-2.5c-4.5,0 -7.8,3.5 -7.8,8.3c0,4.8 3.3,8.4 7.8,8.4c2.2,0 4,-0.9 5.2,-2.5l0,0.7c0,0.9 0.5,1.4 1.4,1.4l1.4,0c0.9,0 1.4,-0.5 1.4,-1.4l0,-13c0.1,-0.9 -0.5,-1.5 -1.4,-1.5zm-7.2,12.8c-2.6,0 -4.4,-2 -4.4,-4.8c0,-2.8 1.8,-4.8 4.4,-4.8c2.6,0 4.5,2 4.5,4.8c0,2.9 -1.9,4.8 -4.5,4.8z" id="svg_5"/>
   <path class="st0" d="m312,26.5c0.5,0 1.6,0.1 2.7,0.6c0.9,0.4 1.5,0.3 2,-0.4l0.4,-0.5c0.3,-0.4 0.4,-0.8 0.3,-1.1c-0.1,-0.3 -0.3,-0.6 -0.7,-0.9c-1.9,-1.1 -3.7,-1.4 -4.9,-1.4c-5.4,0 -9.1,3.5 -9.1,8.5c0,4.8 3.8,8.2 9.1,8.2c1.1,0 2.8,-0.2 4.5,-1.1c0.5,-0.3 0.9,-0.7 1,-1.1c0.1,-0.4 0,-0.7 -0.3,-1.1l-0.4,-0.5c-0.5,-0.7 -1.1,-0.8 -2,-0.3c-1.2,0.6 -2.5,0.6 -2.7,0.6c-3,0 -5.1,-2 -5.1,-4.8c0,-2.7 2.2,-4.7 5.2,-4.7z" id="svg_6"/>
   <path class="st0" d="m331.2,36.5l-1,-1.3c-0.2,-0.2 -0.3,-0.3 -0.5,-0.3c-0.2,0 -0.4,0.1 -0.6,0.3c0,0 -0.1,0.1 -0.1,0.1l0,0c-0.1,0.2 -0.6,0.6 -1.2,0.7c0,0 0,0 0,0c-0.2,0 -0.4,0.1 -0.6,0c-0.9,-0.1 -1.4,-0.7 -1.4,-1.9l0,-7.7l3.8,0c0.5,0 0.8,-0.3 0.8,-0.8l0,-1.6c0,-0.5 -0.3,-0.8 -0.8,-0.8l-3.8,0l0,-1.4l0,0l0,-1.6c0,-0.9 -0.5,-1.4 -1.4,-1.4l-1.3,0c-0.9,0 -1.4,0.5 -1.4,1.4l0,2.9l-1.6,0c-0.5,0 -0.8,0.3 -0.8,0.8l0,1.6c0,0.5 0.3,0.8 0.8,0.8l1.6,0l0,1.4l0,0l0,6.3c0,4.9 3.4,5.6 5.4,5.6c0.7,0 1.3,-0.1 1.9,-0.2c0,0 0,0 0,0c0.3,-0.1 0.6,-0.2 0.9,-0.4c0.5,-0.2 0.8,-0.5 1.2,-0.9c0.2,-0.2 0.4,-0.4 0.5,-0.6c0,-0.3 -0.1,-0.7 -0.4,-1z" id="svg_7"/>
   <path class="st0" d="m280.2,35.2c-0.2,-0.2 -0.3,-0.3 -0.5,-0.3c-0.2,0 -0.4,0.1 -0.6,0.3c0,0 -0.1,0.1 -0.1,0.1c0,0 0,0 0,0c-0.1,0.2 -0.6,0.6 -1.2,0.7c0,0 0,0 0,0c-0.2,0 -0.4,0.1 -0.6,0c-0.9,-0.1 -1.4,-0.7 -1.4,-1.9l0,-7.7l3.8,0c0.5,0 0.8,-0.3 0.8,-0.8l0,-1.6c0,-0.5 -0.3,-0.8 -0.8,-0.8l-3.8,0l0,-1.4l0,-1.6c0,-0.9 -0.5,-1.4 -1.4,-1.4l-1.4,0c-0.9,0 -1.4,0.5 -1.4,1.4l0,2.9l-1.6,0c-0.5,0 -0.8,0.3 -0.8,0.8l0,1.6c0,0.5 0.3,0.8 0.8,0.8l1.6,0l0,1.4l0,6.3c0,4.9 3.4,5.6 5.4,5.6c0.7,0 1.3,-0.1 1.9,-0.2c0,0 0,0 0,0c0.3,-0.1 0.6,-0.2 0.9,-0.4c0.5,-0.2 0.8,-0.5 1.2,-0.9c0.2,-0.2 0.4,-0.4 0.5,-0.6c0.3,-0.3 0.2,-0.7 -0.1,-1.1l-1.2,-1.2z" id="svg_8"/>
   <path class="st0" d="m85.9,34.9c-0.5,-0.7 -1.1,-0.9 -2,-0.4c-1.3,0.7 -2.9,1.2 -4.5,1.2c-4.5,0 -7.6,-3.1 -7.6,-7.5c0,-4.4 3.1,-7.5 7.6,-7.5c1.5,0 3.2,0.4 4.5,1.2c0.9,0.5 1.5,0.4 2,-0.4l0.5,-0.7c0.5,-0.8 0.4,-1.5 -0.3,-2c-2,-1.3 -4.1,-1.9 -6.6,-1.9c-3.5,0 -6.6,1.2 -8.8,3.4c-2.1,2.1 -3.2,4.9 -3.2,8c0,3.1 1.1,5.9 3.2,8c2.2,2.2 5.2,3.4 8.8,3.4c2.6,0 4.7,-0.6 6.8,-2c0.6,-0.5 0.7,-1.1 0.2,-1.9l-0.6,-0.9z" id="svg_9"/>
   <path class="st0" d="m96.5,22.9c-4.8,0 -8.6,3.7 -8.6,8.3c0,4.7 3.8,8.4 8.6,8.4c4.9,0 8.7,-3.7 8.7,-8.4c-0.1,-4.6 -4,-8.3 -8.7,-8.3zm0,13.1c-2.6,0 -4.6,-2.1 -4.6,-4.7c0,-2.7 2,-4.8 4.6,-4.8c2.6,0 4.6,2.1 4.6,4.8c-0.1,2.6 -2.1,4.7 -4.6,4.7z" id="svg_10"/>
   <path class="st0" d="m116.9,22.9c-2.3,0 -4.1,1 -4.9,2.7l0,-0.9c0,-0.9 -0.5,-1.4 -1.4,-1.4l-1.4,0c-0.9,0 -1.4,0.5 -1.4,1.4l0,13.2c0,0.9 0.5,1.4 1.4,1.4l1.4,0c0.9,0 1.4,-0.5 1.4,-1.4l0,-6.4c0,-1.7 0.8,-5 4,-5c1.7,0 2.7,1.4 2.7,3.8l0,7.5c0,0.9 0.5,1.4 1.4,1.4l1.4,0c0.9,0 1.4,-0.5 1.4,-1.4l0,-7.7c0,-4.5 -2.3,-7.2 -6,-7.2z" id="svg_11"/>
   <path class="st0" d="m133.4,29.9l-2.1,-0.7c-1.1,-0.3 -1.5,-0.8 -1.5,-1.5c0,-0.9 0.8,-1.5 1.8,-1.5c0.7,0 1.2,0.2 1.6,0.7c0.5,0.6 1,0.8 1.8,0.7l0.7,-0.2c0.5,-0.1 0.9,-0.4 1,-0.8c0.1,-0.3 0.1,-0.7 -0.2,-1.1c-1,-1.7 -2.7,-2.6 -5,-2.6c-3.3,0 -5.7,2.1 -5.7,5c0,2.1 1.4,3.7 4.3,4.5l2,0.7c1.2,0.4 1.6,0.9 1.6,1.5c0,0.9 -0.9,1.6 -2.2,1.6c-1,0 -2,-0.4 -2.5,-1.1c-0.5,-0.6 -0.9,-1 -1.8,-0.8l-0.8,0.2c-0.5,0.1 -0.9,0.4 -1,0.7c-0.1,0.3 -0.1,0.7 0.1,1.1l0,0c1,2 3.2,3.2 6,3.2c4.2,0 6.1,-2.5 6.1,-5c0,-1.5 -0.8,-3.5 -4.2,-4.6z" id="svg_12"/>
   <path class="st0" d="m167.9,23.2l-1.4,0c-0.9,0 -1.4,0.5 -1.4,1.4l0,0.7c-1.2,-1.6 -3.1,-2.5 -5.2,-2.5c-4.5,0 -7.8,3.5 -7.8,8.3c0,4.8 3.3,8.4 7.8,8.4c2.2,0 4,-0.9 5.2,-2.5l0,0.7c0,0.9 0.5,1.4 1.4,1.4l1.4,0c0.9,0 1.4,-0.5 1.4,-1.4l0,-13.1c0.1,-0.9 -0.5,-1.4 -1.4,-1.4zm-7.2,12.8c-2.6,0 -4.4,-2 -4.4,-4.8c0,-2.8 1.8,-4.8 4.4,-4.8c2.6,0 4.5,2 4.5,4.8c0,2.8 -1.9,4.8 -4.5,4.8z" id="svg_13"/>
   <path class="st0" d="m182.2,22.9c-2.3,0 -4.1,1 -4.9,2.7l0,-0.9c0,-0.9 -0.5,-1.4 -1.4,-1.4l-1.4,0c-0.9,0 -1.4,0.5 -1.4,1.4l0,13.2c0,0.9 0.5,1.4 1.4,1.4l1.4,0c0.9,0 1.4,-0.5 1.4,-1.4l0,-6.4c0,-1.7 0.8,-5 4,-5c1.7,0 2.7,1.4 2.7,3.8l0,7.5c0,0.9 0.5,1.4 1.4,1.4l1.4,0c0.9,0 1.4,-0.5 1.4,-1.4l0,-7.7c0,-4.5 -2.3,-7.2 -6,-7.2z" id="svg_14"/>
   <path class="st0" d="m200.9,35.1c-0.2,-0.2 -0.3,-0.3 -0.5,-0.3c-0.2,0 -0.4,0.1 -0.6,0.3c0,0 -0.1,0.1 -0.1,0.1c0,0 0,0 0,0c-0.1,0.2 -0.6,0.6 -1.2,0.7c0,0 0,0 0,0c-0.2,0 -0.4,0.1 -0.6,0c-0.9,-0.1 -1.4,-0.7 -1.4,-1.9l0,-7.7l3.8,0c0.5,0 0.8,-0.3 0.8,-0.8l0,-1.5c0,-0.5 -0.3,-0.8 -0.8,-0.8l-3.8,0l0,-1.4l0,-1.6c0,-0.9 -0.5,-1.4 -1.4,-1.4l-1.3,0c-0.9,0 -1.4,0.5 -1.4,1.4l0,2.9l-1.6,0c-0.5,0 -0.8,0.3 -0.8,0.8l0,1.6c0,0.5 0.3,0.8 0.8,0.8l1.6,0l0,7.7c0,4.9 3.4,5.6 5.4,5.6c0.7,0 1.3,-0.1 1.9,-0.2c0,0 0,0 0,0c0.3,-0.1 0.6,-0.2 0.9,-0.4c0.5,-0.2 0.8,-0.5 1.2,-0.9c0.2,-0.2 0.4,-0.4 0.5,-0.6c0.3,-0.3 0.2,-0.7 -0.1,-1.1l-1.3,-1.3z" id="svg_15"/>
   <path class="st0" d="m149.9,35.1c-0.2,-0.2 -0.3,-0.3 -0.5,-0.3c-0.2,0 -0.4,0.1 -0.6,0.3c0,0 -0.1,0.1 -0.1,0.1l0,0c-0.1,0.2 -0.6,0.6 -1.2,0.7c0,0 0,0 0,0c-0.2,0 -0.4,0.1 -0.6,0c-0.9,-0.1 -1.4,-0.7 -1.4,-1.9l0,-7.7l3.8,0c0.5,0 0.8,-0.3 0.8,-0.8l0,-1.5c0,-0.5 -0.3,-0.8 -0.8,-0.8l-3.8,0l0,-1.4l0,0l0,-1.6c0,-0.9 -0.5,-1.4 -1.4,-1.4l-1.3,0c-0.9,0 -1.4,0.5 -1.4,1.4l0,2.9l-1.6,0c-0.5,0 -0.8,0.3 -0.8,0.8l0,1.6c0,0.5 0.3,0.8 0.8,0.8l1.6,0l0,1.4l0,6.3c0,4.9 3.4,5.6 5.4,5.6c0.7,0 1.3,-0.1 1.9,-0.2c0,0 0,0 0,0c0.3,-0.1 0.6,-0.2 0.9,-0.4c0.5,-0.2 0.8,-0.5 1.2,-0.9c0.2,-0.2 0.4,-0.4 0.5,-0.6c0.3,-0.3 0.2,-0.7 -0.1,-1.1l-1.3,-1.3z" id="svg_16"/>
   <path class="st1" d="m36.3,23.1c0.5,1.5 1.9,2.4 3.5,2.4c0.4,0 0.8,-0.1 1.2,-0.2c1.9,-0.7 2.9,-2.8 2.2,-4.7c-1.2,-3.3 -3.7,-5.9 -7.2,-7.5c-1.8,-0.8 -4,0 -4.9,1.8c-0.8,1.8 0,4 1.8,4.9c1.8,0.8 2.9,1.9 3.4,3.3z" id="svg_17"/>
   <path class="st1" d="m35.1,0.1c-2,-0.4 -3.9,0.9 -4.3,2.9c-0.4,2 0.9,3.9 2.9,4.3c8.3,1.6 13.9,7.2 15.3,15.3c0.3,1.8 1.9,3 3.6,3c0.2,0 0.4,0 0.6,-0.1c2,-0.4 3.3,-2.3 3,-4.2c-1.9,-11 -9.8,-19 -21.1,-21.2z" id="svg_18"/>
   <path class="st0" d="m25.8,36.7c-3.3,0 -6.1,-2.7 -6.1,-6.1c0,-3.3 2.7,-6.1 6.1,-6.1c2,0 3.7,-1.6 3.7,-3.7s-1.6,-3.7 -3.7,-3.7c-7.4,0 -13.4,6 -13.4,13.4c0,7.4 6,13.4 13.4,13.4c7.4,0 13.4,-6 13.4,-13.4c0,-2 -1.6,-3.7 -3.7,-3.7c-2,0 -3.7,1.6 -3.7,3.7c0.1,3.5 -2.7,6.2 -6,6.2z" id="svg_19"/>
   <path class="st0" d="m47.9,27c-2,0 -3.7,1.6 -3.7,3.7c0,10.2 -8.3,18.5 -18.5,18.5c-10.2,0 -18.5,-8.3 -18.5,-18.5c0,-10.2 8.3,-18.5 18.5,-18.5c2,0 3.7,-1.6 3.7,-3.7c0,-2 -1.6,-3.7 -3.7,-3.7c-14.1,0 -25.7,11.6 -25.7,25.8c0,14.2 11.6,25.8 25.8,25.8s25.8,-11.6 25.8,-25.8c0,-2 -1.6,-3.6 -3.7,-3.6z" id="svg_20"/>
  </g>
 </g>
</svg>