<?xml version="1.0"?>
<svg width="600" height="120" xmlns="http://www.w3.org/2000/svg" xmlns:svg="http://www.w3.org/2000/svg">
 <style type="text/css">.st0{fill:#FB6970;}
	.st1{fill:#212F4F;}</style>
 <g class="layer">
  <title>Layer 1</title>
  <path class="st0" d="m62.099999,94.499994c22.4,0 39.7,-16.9 39.7,-37.8c0,-19.5 -16.3,-31.5 -27,-31.5c-15,0 -27,10.5 -28.7,26.1c-0.3,2.9 -2.6,5.3 -5.5,5.3c-4.8,0 -11.9,-0.1 -16.3,-0.1c-1.9,0 -3.5,-1.5 -3.4,-3.5c0.7,-13.5 5.2,-26.2 13.8,-35.9c9.6,-10.8 23.6,-17.1 40.2,-17.1c27.8,0 54.1,25.2 54.1,56.6c0,34.8 -28.8,62.9 -66.2,62.9c-26.6,0 -53.5,-17.4 -62.8,-41.7c0,-0.1 0,-0.2 0,-0.3c0.1,-0.7 0.4,-1.4 0.6,-2c0.4,-0.9 0.7,-1.9 0.7,-2.9l-0.2,-3.4c-0.1,-1.7 0.9,-3.2 2.4,-3.9l1.4,-0.6c1.5,-0.7 2.6,-2.1 2.9,-3.8c0.5,-2.5 2.6,-4.3 5.2,-4.3c4,0 7.4,2.6 8.7,6.4c6.1,18.2 16,31.5 40.4,31.5z" id="svg_1"/>
  <path class="st1" d="m557.299999,41.899994c-5,0 -6.5,-3 -6.5,-6.3c0,-3.5 1.2,-6.3 6.5,-6.3c5.2,0 6.5,2.8 6.5,6.3c0,3.3 -1.3,6.3 -6.5,6.3zm-90.5,40.9l0,-24.5l-7,0l0,-2.9c0,-3.1 2.5,-5.6 5.6,-5.6l1.3,0l0,-10.4l11.2,-3.1l0,13.5l10.1,0l0,2.9c0,3.1 -2.5,5.6 -5.6,5.6l-4.5,0l0,23.1c0,3.6 2,4.8 4.6,5.2c3.1,0.5 5.6,2.7 5.6,5.8l0,4.2c-10.5,0 -21.3,-0.4 -21.3,-13.8l0,0zm-220.3,-34c-11.2,-0.3 -24.9,6.8 -24.9,24.4c0,17.3 13.7,24.2 24.9,23.9c11.5,0.3 25.1,-6.6 25.1,-23.9c0,-17.7 -13.6,-24.7 -25.1,-24.4zm0.1,39.6c-8.1,0 -13.9,-5.9 -13.9,-15.6c0,-9.2 5.8,-15.3 13.9,-15.3c8.1,0 13.8,6.1 13.8,15.3c0,9.7 -5.7,15.6 -13.8,15.6l0,0zm54.4,-39.5c9.7,0 19.8,2.7 19.8,21.7l0,25.5l-6.2,0c-3.1,0 -5.6,-2.5 -5.6,-5.6l0,-20.9c0,-9.1 -3.3,-12.5 -9.2,-12.5c-3.2,0 -7.4,2.5 -9.4,4.5l0,28.9c0,3.1 -2.5,5.6 -5.6,5.6l0,0l-5.7,0l0,-46.1l6.3,0c2.2,0 4.2,1.5 4.7,3.7c2.8,-3.1 6.6,-4.8 10.9,-4.8zm32.6,1c2.4,0 4.5,1.5 5.3,3.7l10.2,28.6l10.2,-28.6c0.8,-2.2 2.9,-3.7 5.3,-3.7l8.1,0l-16.6,42.6c-0.8,2.2 -2.9,3.6 -5.2,3.6l-7.1,0l-18.3,-46.2c0,0 8.1,0 8.1,0zm83.1,43.9c-3.5,1.4 -10.7,3.3 -18.1,3.3c-13.1,0 -23.1,-7.5 -23.1,-24.5c0,-15.3 9.7,-23.4 21.5,-23.4c14.6,0 20.8,9.8 20.2,23.1c-0.1,2.8 -2.5,4.8 -5.3,4.8l-25.2,0c0.6,7.4 6,11.3 13.2,11.3c2.8,0 5.8,-0.1 9.3,-0.8c3.8,-0.7 7.5,2 7.5,5.8l0,0.4l0,0zm-9.6,-24.5c0.8,-7.3 -4.2,-11.3 -10.1,-11.3c-5.9,0 -9.9,4.4 -10.3,11.3l20.4,0l0,0zm25,-19.3c2.1,0 4,1.5 4.5,3.5c3.8,-2.9 8.6,-4.7 11.9,-4.7c0.3,0 2.1,0 5,0.4l0,4.9c0,2.7 -2.3,4.7 -5,4.7c-3.1,0 -7.5,1.1 -11.1,3.1l0,34.1l-11.4,0l0,-46.1l6.1,0.1l0,0zm131,40.4l0,-40.5l-5.6,0c-3.1,0 -5.6,2.5 -5.6,5.6l0,40.5l5.6,0c3.1,0 5.6,-2.5 5.6,-5.6l0,0zm15.3,-7.5l0,-24.5l-7.5,0l0,-2.9c0,-3.1 2.5,-5.6 5.6,-5.6l1.9,0l0,-10.4l11.2,-3.1l0,13.5l10.1,0l0,2.9c0,3.1 -2.5,5.6 -5.6,5.6l-4.5,0l0,23.1c0,3.6 2,4.8 4.6,5.2c3.1,0.5 5.6,2.7 5.6,5.8l0,4.2c-10.6,0 -21.4,-0.4 -21.4,-13.8zm-412.6,-19.3c0.1,-21.6 16.4,-33.6 32,-33.6c8.7,0 16.6,1.9 23.2,6.5l-2.6,3.6c-1.8,2.4 -5.1,3.4 -7.9,2.3c-3.9,-1.6 -7.7,-1.9 -10.4,-1.9c-12.8,0 -22.4,8.2 -22.5,23.1c0.1,14.9 9.7,23.2 22.5,23.2c2.8,0 6.5,-0.3 10.4,-1.9c2.8,-1.1 6.2,-0.3 7.9,2.2l2.6,3.6c-6.5,4.7 -14.5,6.5 -23.2,6.5c-15.6,0.1 -31.9,-12 -32,-33.6l0,0zm336.2,-33.3c3.1,0 5.6,2.5 5.6,5.6l0,25.7l23,-28.8c1.1,-1.4 2.7,-2.3 4.5,-2.3l10.2,0l-26,32.7l26,32.7l-10.2,0c-1.8,0 -3.5,-0.8 -4.5,-2.3l-23,-28.8l0,25.5c0,3.1 -2.5,5.6 -5.6,5.6l-5.9,0l0,-65.7l5.9,0l0,0.1z" id="svg_2"/>
 </g>
</svg>