<?xml version="1.0"?>
<svg width="126" height="45" xmlns="http://www.w3.org/2000/svg" xmlns:svg="http://www.w3.org/2000/svg">
 <g class="layer">
  <title>Layer 1</title>
  <g id="svg_1">
   <g id="logomark">
    <path d="m27,21.7l-4.1,0c0,0.2 0,0.3 0,0.5c0,6 -4.9,9.6 -9.4,9.6s-9.5,-3.6 -9.5,-9.6c0,-0.2 0,-0.3 0,-0.5l-4,0c0,0.2 0,0.3 0,0.5c0,8.2 6.8,13.6 13.5,13.6s13.5,-5.4 13.5,-13.6c0,-0.2 0,-0.3 0,-0.5z" fill="#FF00FA" id="logo-mouth"/>
    <path d="m13.5,5.1l2.8,3.9l5.1,0c-2.4,-3.1 -4.9,-6.3 -7.9,-9c-3,2.7 -5.6,5.9 -8,9l5.1,0l2.9,-3.9z" fill="#FF00FA" id="logo-hat"/>
    <g id="logo-eyes">
     <ellipse cx="5.4" cy="15.5" fill="#FF00FA" id="logo-eye-left" rx="2.7" ry="2.7"/>
     <ellipse cx="13.5" cy="15.5" fill="#FF00FA" id="logo-eye-center" rx="2.7" ry="2.7"/>
     <ellipse cx="21.6" cy="15.5" fill="#FF00FA" id="logo-eye-right" rx="2.7" ry="2.7"/>
    </g>
   </g>
   <g id="wordmark">
    <path d="m61.2,35.3l-4.8,0l0,-3.9c-2.5,3.2 -6,4.7 -10,4.7s-7.7,-1.3 -10,-3.8c-2.4,-2.4 -3.9,-5.8 -3.9,-9.9c0,-4.2 1.3,-7.5 3.9,-9.9c2.5,-2.4 6,-3.8 10,-3.8c4.3,0 7.3,1.3 10,4.3l0,-13l4.8,0l0,35.3zm-14.4,-22.4c-5.9,0 -9.5,3.4 -9.5,9.4c0,5.8 3.6,9.3 9.5,9.3c6,0 9.6,-3.5 9.6,-9.3s-3.6,-9.4 -9.6,-9.4z" fill="#FF00FA" id="wordmark-d"/>
    <polygon fill="#FF00FA" id="wordmark-r" points="82.80000305175781,13.299999237060547 71.19999694824219,13.299999237060547 71.19999694824219,36 66.5999984741211,36 66.5999984741211,9 82.80000305175781,9 "/>
    <path d="m86.4,2.9c0,-1.1 0.5,-2 1.4,-2.4c0.9,-0.6 1.8,-0.6 2.7,0c0.9,0.4 1.4,1.3 1.4,2.4c0,1 -0.4,2.1 -1.4,2.5c-0.9,0.6 -1.8,0.6 -2.7,0c-0.9,-0.4 -1.4,-1.5 -1.4,-2.5zm0.5,6.4l4.5,0l0,26.7l-4.5,0l0,-26.7z" fill="#FF00FA" id="wordmark-i"/>
    <path d="m97.2,9.6l4.8,0l0,3.9c2.4,-2.8 5.5,-4.5 10.1,-4.5c4.1,0 7.5,1.3 10.1,3.8c2.5,2.4 3.9,5.8 3.9,9.9c0,4.2 -1.4,7.5 -3.9,9.9c-2.6,2.4 -6,3.8 -10.2,3.8c-4.2,0 -7.2,-1.4 -9.9,-4.4l0,13l-4.8,0l0,-35.4l-0.1,0zm14.3,22.5c6,0 9.6,-3.4 9.6,-9.4c0,-5.9 -3.6,-9.3 -9.6,-9.3c-5.9,0 -9.5,3.5 -9.5,9.3s3.6,9.4 9.5,9.4z" fill="#FF00FA" id="wordmark-p"/>
   </g>
  </g>
 </g>
</svg>