<svg xmlns="http://www.w3.org/2000/svg" xmlns:xlink="http://www.w3.org/1999/xlink" width="125" zoomAndPan="magnify" viewBox="0 0 93.75 112.499997" height="150" preserveAspectRatio="xMidYMid meet" version="1.0"><defs><filter x="0%" y="0%" width="100%" height="100%" id="818c32ee18"><feColorMatrix values="0 0 0 0 1 0 0 0 0 1 0 0 0 0 1 0 0 0 1 0" color-interpolation-filters="sRGB"/></filter><clipPath id="81fe36d209"><path d="M 0.0820312 0 L 93.417969 0 L 93.417969 112.003906 L 0.0820312 112.003906 Z M 0.0820312 0 " clip-rule="nonzero"/></clipPath><clipPath id="ad7b8ce261"><path d="M 1.578125 1.492188 L 91.925781 1.492188 L 91.925781 13.78125 L 1.578125 13.78125 Z M 1.578125 1.492188 " clip-rule="nonzero"/></clipPath><clipPath id="4c1ecd4a81"><path d="M 4.902344 4.851562 L 8.515625 4.851562 L 8.515625 8.46875 L 4.902344 8.46875 Z M 4.902344 4.851562 " clip-rule="nonzero"/></clipPath><clipPath id="03307daee9"><path d="M 6.707031 4.851562 C 5.710938 4.851562 4.902344 5.664062 4.902344 6.660156 C 4.902344 7.660156 5.710938 8.46875 6.707031 8.46875 C 7.707031 8.46875 8.515625 7.660156 8.515625 6.660156 C 8.515625 5.664062 7.707031 4.851562 6.707031 4.851562 Z M 6.707031 4.851562 " clip-rule="nonzero"/></clipPath><clipPath id="9b9978da1f"><path d="M 10.609375 4.851562 L 14.226562 4.851562 L 14.226562 8.46875 L 10.609375 8.46875 Z M 10.609375 4.851562 " clip-rule="nonzero"/></clipPath><clipPath id="24b67251dc"><path d="M 12.417969 4.851562 C 11.421875 4.851562 10.609375 5.664062 10.609375 6.660156 C 10.609375 7.660156 11.421875 8.46875 12.417969 8.46875 C 13.417969 8.46875 14.226562 7.660156 14.226562 6.660156 C 14.226562 5.664062 13.417969 4.851562 12.417969 4.851562 Z M 12.417969 4.851562 " clip-rule="nonzero"/></clipPath><clipPath id="6a67212239"><path d="M 16.320312 4.851562 L 19.933594 4.851562 L 19.933594 8.46875 L 16.320312 8.46875 Z M 16.320312 4.851562 " clip-rule="nonzero"/></clipPath><clipPath id="6b8bda4878"><path d="M 18.128906 4.851562 C 17.128906 4.851562 16.320312 5.664062 16.320312 6.660156 C 16.320312 7.660156 17.128906 8.46875 18.128906 8.46875 C 19.125 8.46875 19.933594 7.660156 19.933594 6.660156 C 19.933594 5.664062 19.125 4.851562 18.128906 4.851562 Z M 18.128906 4.851562 " clip-rule="nonzero"/></clipPath><clipPath id="e2d9c80505"><path d="M 0.0820312 0 L 93.417969 0 L 93.417969 15.679688 L 0.0820312 15.679688 Z M 0.0820312 0 " clip-rule="nonzero"/></clipPath><clipPath id="7e2a5fb788"><path d="M 3.070312 0 L 90.429688 0 C 92.082031 0 93.417969 1.335938 93.417969 2.988281 L 93.417969 12.695312 C 93.417969 14.34375 92.082031 15.679688 90.429688 15.679688 L 3.070312 15.679688 C 1.421875 15.679688 0.0820312 14.34375 0.0820312 12.695312 L 0.0820312 2.988281 C 0.0820312 1.335938 1.421875 0 3.070312 0 Z M 3.070312 0 " clip-rule="nonzero"/></clipPath><clipPath id="72b560bf0d"><path d="M 0.0820312 11.199219 L 93.417969 11.199219 L 93.417969 112.003906 L 0.0820312 112.003906 Z M 0.0820312 11.199219 " clip-rule="nonzero"/></clipPath><clipPath id="ceb6e081cc"><path d="M 5.683594 16.726562 L 87.816406 16.726562 L 87.816406 22.699219 L 5.683594 22.699219 Z M 5.683594 16.726562 " clip-rule="nonzero"/></clipPath><clipPath id="7cb9ed8020"><path d="M 5.683594 27.179688 L 87.816406 27.179688 L 87.816406 33.152344 L 5.683594 33.152344 Z M 5.683594 27.179688 " clip-rule="nonzero"/></clipPath><clipPath id="1d042d282a"><path d="M 5.683594 37.632812 L 65.417969 37.632812 L 65.417969 43.605469 L 5.683594 43.605469 Z M 5.683594 37.632812 " clip-rule="nonzero"/></clipPath><clipPath id="ccd15bec44"><path d="M 5.683594 79.445312 L 87.816406 79.445312 L 87.816406 85.421875 L 5.683594 85.421875 Z M 5.683594 79.445312 " clip-rule="nonzero"/></clipPath><clipPath id="b5bb882eb0"><path d="M 5.683594 89.902344 L 87.816406 89.902344 L 87.816406 95.875 L 5.683594 95.875 Z M 5.683594 89.902344 " clip-rule="nonzero"/></clipPath><clipPath id="39ce58f546"><path d="M 5.683594 100.355469 L 65.417969 100.355469 L 65.417969 106.328125 L 5.683594 106.328125 Z M 5.683594 100.355469 " clip-rule="nonzero"/></clipPath><clipPath id="0599260bd5"><path d="M 5.683594 48.085938 L 87.816406 48.085938 L 87.816406 54.058594 L 5.683594 54.058594 Z M 5.683594 48.085938 " clip-rule="nonzero"/></clipPath><clipPath id="19eadaeae6"><path d="M 5.683594 58.539062 L 87.816406 58.539062 L 87.816406 64.511719 L 5.683594 64.511719 Z M 5.683594 58.539062 " clip-rule="nonzero"/></clipPath><clipPath id="fa4a507aea"><path d="M 5.683594 68.992188 L 65.417969 68.992188 L 65.417969 74.96875 L 5.683594 74.96875 Z M 5.683594 68.992188 " clip-rule="nonzero"/></clipPath><mask id="5e5ce78f58"><g filter="url(#818c32ee18)"><rect x="-9.375" width="112.5" fill="#000000" y="-11.25" height="134.999996" fill-opacity="0.29"/></g></mask><clipPath id="877c1c6030"><path d="M 0.6875 0.730469 L 90.8125 0.730469 L 90.8125 98.320312 L 0.6875 98.320312 Z M 0.6875 0.730469 " clip-rule="nonzero"/></clipPath><clipPath id="3087813081"><rect x="0" width="91" y="0" height="99"/></clipPath><mask id="75f810cb53"><g filter="url(#818c32ee18)"><rect x="-9.375" width="112.5" fill="#000000" y="-11.25" height="134.999996" fill-opacity="0.47"/></g></mask><clipPath id="7acdd2344f"><path d="M 0.460938 0.703125 L 60.195312 0.703125 L 60.195312 34.304688 L 0.460938 34.304688 Z M 0.460938 0.703125 " clip-rule="nonzero"/></clipPath><clipPath id="b9b6eff6e5"><rect x="0" width="61" y="0" height="35"/></clipPath><clipPath id="e85468115d"><path d="M 16.882812 39.199219 L 76.617188 39.199219 L 76.617188 72.800781 L 16.882812 72.800781 Z M 16.882812 39.199219 " clip-rule="nonzero"/></clipPath><clipPath id="9ef4d6af22"><path d="M 20.980469 44.425781 L 71.753906 44.425781 L 71.753906 50.402344 L 20.980469 50.402344 Z M 20.980469 44.425781 " clip-rule="nonzero"/></clipPath><clipPath id="0593dffe5a"><path d="M 20.980469 53.386719 L 71.753906 53.386719 L 71.753906 59.359375 L 20.980469 59.359375 Z M 20.980469 53.386719 " clip-rule="nonzero"/></clipPath><clipPath id="9a0862a8d3"><path d="M 20.980469 62.347656 L 54.550781 62.347656 L 54.550781 68.320312 L 20.980469 68.320312 Z M 20.980469 62.347656 " clip-rule="nonzero"/></clipPath><clipPath id="c6ddc6e75c"><path d="M 20.980469 62.347656 L 54.546875 62.347656 L 54.546875 68.320312 L 20.980469 68.320312 Z M 20.980469 62.347656 " clip-rule="nonzero"/></clipPath><clipPath id="e356f6ac96"><path d="M 58.316406 62.347656 L 71.753906 62.347656 L 71.753906 68.320312 L 58.316406 68.320312 Z M 58.316406 62.347656 " clip-rule="nonzero"/></clipPath><clipPath id="3c4858052d"><path d="M 0.0820312 11.199219 L 93.417969 11.199219 L 93.417969 112.003906 L 0.0820312 112.003906 Z M 0.0820312 11.199219 " clip-rule="nonzero"/></clipPath><clipPath id="5b2d5b5f27"><path d="M 20.25 13.8125 L 31.820312 13.8125 L 31.820312 28 L 20.25 28 Z M 20.25 13.8125 " clip-rule="nonzero"/></clipPath><clipPath id="b8a7835815"><path d="M 19.054688 13.886719 L 30.628906 13.886719 L 30.628906 28.074219 L 19.054688 28.074219 Z M 19.054688 13.886719 " clip-rule="nonzero"/></clipPath></defs><g clip-path="url(#81fe36d209)"><path fill="#ffffff" d="M 0.0820312 0 L 93.417969 0 L 93.417969 112.003906 L 0.0820312 112.003906 Z M 0.0820312 0 " fill-opacity="1" fill-rule="nonzero"/><path fill="#ffffff" d="M 0.0820312 0 L 93.417969 0 L 93.417969 112.003906 L 0.0820312 112.003906 Z M 0.0820312 0 " fill-opacity="1" fill-rule="nonzero"/></g><g clip-path="url(#ad7b8ce261)"><path fill="#dddddd" d="M 1.578125 1.492188 L 91.925781 1.492188 L 91.925781 13.78125 L 1.578125 13.78125 Z M 1.578125 1.492188 " fill-opacity="1" fill-rule="nonzero"/></g><g clip-path="url(#4c1ecd4a81)"><g clip-path="url(#03307daee9)"><path fill="#2271b1" d="M 4.902344 4.851562 L 8.515625 4.851562 L 8.515625 8.46875 L 4.902344 8.46875 Z M 4.902344 4.851562 " fill-opacity="1" fill-rule="nonzero"/></g></g><g clip-path="url(#9b9978da1f)"><g clip-path="url(#24b67251dc)"><path fill="#2271b1" d="M 10.609375 4.851562 L 14.226562 4.851562 L 14.226562 8.46875 L 10.609375 8.46875 Z M 10.609375 4.851562 " fill-opacity="1" fill-rule="nonzero"/></g></g><g clip-path="url(#6a67212239)"><g clip-path="url(#6b8bda4878)"><path fill="#2271b1" d="M 16.320312 4.851562 L 19.933594 4.851562 L 19.933594 8.46875 L 16.320312 8.46875 Z M 16.320312 4.851562 " fill-opacity="1" fill-rule="nonzero"/></g></g><g clip-path="url(#e2d9c80505)"><g clip-path="url(#7e2a5fb788)"><path stroke-linecap="butt" transform="matrix(0.746681, 0, 0, 0.746681, 0.0829673, 0)" fill="none" stroke-linejoin="miter" d="M 4.00083 0 L 120.99769 0 C 123.210607 0 124.999774 1.789167 124.999774 4.002084 L 124.999774 17.002316 C 124.999774 19.210001 123.210607 20.999168 120.99769 20.999168 L 4.00083 20.999168 C 1.793145 20.999168 -0.00125359 19.210001 -0.00125359 17.002316 L -0.00125359 4.002084 C -0.00125359 1.789167 1.793145 0 4.00083 0 Z M 4.00083 0 " stroke="#2271b1" stroke-width="4" stroke-opacity="1" stroke-miterlimit="4"/></g></g><g clip-path="url(#72b560bf0d)"><path fill="#ffffff" d="M 0.0820312 11.199219 L 93.417969 11.199219 L 93.417969 112.003906 L 0.0820312 112.003906 Z M 0.0820312 11.199219 " fill-opacity="1" fill-rule="nonzero"/></g><g clip-path="url(#ceb6e081cc)"><path fill="#e7e7e7" d="M 5.683594 16.726562 L 87.816406 16.726562 L 87.816406 22.699219 L 5.683594 22.699219 Z M 5.683594 16.726562 " fill-opacity="1" fill-rule="nonzero"/></g><g clip-path="url(#7cb9ed8020)"><path fill="#e7e7e7" d="M 5.683594 27.179688 L 87.816406 27.179688 L 87.816406 33.152344 L 5.683594 33.152344 Z M 5.683594 27.179688 " fill-opacity="1" fill-rule="nonzero"/></g><g clip-path="url(#1d042d282a)"><path fill="#e7e7e7" d="M 5.683594 37.632812 L 65.417969 37.632812 L 65.417969 43.605469 L 5.683594 43.605469 Z M 5.683594 37.632812 " fill-opacity="1" fill-rule="nonzero"/></g><g clip-path="url(#ccd15bec44)"><path fill="#e7e7e7" d="M 5.683594 79.445312 L 87.816406 79.445312 L 87.816406 85.421875 L 5.683594 85.421875 Z M 5.683594 79.445312 " fill-opacity="1" fill-rule="nonzero"/></g><g clip-path="url(#b5bb882eb0)"><path fill="#e7e7e7" d="M 5.683594 89.902344 L 87.816406 89.902344 L 87.816406 95.875 L 5.683594 95.875 Z M 5.683594 89.902344 " fill-opacity="1" fill-rule="nonzero"/></g><g clip-path="url(#39ce58f546)"><path fill="#e7e7e7" d="M 5.683594 100.355469 L 65.417969 100.355469 L 65.417969 106.328125 L 5.683594 106.328125 Z M 5.683594 100.355469 " fill-opacity="1" fill-rule="nonzero"/></g><g clip-path="url(#0599260bd5)"><path fill="#e7e7e7" d="M 5.683594 48.085938 L 87.816406 48.085938 L 87.816406 54.058594 L 5.683594 54.058594 Z M 5.683594 48.085938 " fill-opacity="1" fill-rule="nonzero"/></g><g clip-path="url(#19eadaeae6)"><path fill="#e7e7e7" d="M 5.683594 58.539062 L 87.816406 58.539062 L 87.816406 64.511719 L 5.683594 64.511719 Z M 5.683594 58.539062 " fill-opacity="1" fill-rule="nonzero"/></g><g clip-path="url(#fa4a507aea)"><path fill="#e7e7e7" d="M 5.683594 68.992188 L 65.417969 68.992188 L 65.417969 74.96875 L 5.683594 74.96875 Z M 5.683594 68.992188 " fill-opacity="1" fill-rule="nonzero"/></g><g mask="url(#5e5ce78f58)"><g transform="matrix(1, 0, 0, 1, 1, 12)"><g clip-path="url(#3087813081)"><g clip-path="url(#877c1c6030)"><path fill="#000000" d="M 0.6875 0.730469 L 90.8125 0.730469 L 90.8125 98.320312 L 0.6875 98.320312 Z M 0.6875 0.730469 " fill-opacity="1" fill-rule="nonzero"/></g></g></g></g><g mask="url(#75f810cb53)"><g transform="matrix(1, 0, 0, 1, 19, 41)"><g clip-path="url(#b9b6eff6e5)"><g clip-path="url(#7acdd2344f)"><path fill="#000000" d="M 0.460938 0.703125 L 60.195312 0.703125 L 60.195312 34.304688 L 0.460938 34.304688 Z M 0.460938 0.703125 " fill-opacity="1" fill-rule="nonzero"/></g></g></g></g><g clip-path="url(#e85468115d)"><path stroke-linecap="butt" transform="matrix(0.746681, 0, 0, 0.746681, 16.883297, 39.200772)" fill-opacity="1" fill="#ffffff" fill-rule="nonzero" stroke-linejoin="miter" d="M -0.000648389 -0.00207961 L 79.999172 -0.00207961 L 79.999172 44.999127 L -0.000648389 44.999127 Z M -0.000648389 -0.00207961 " stroke="#2271b1" stroke-width="4" stroke-opacity="1" stroke-miterlimit="4"/></g><g clip-path="url(#9ef4d6af22)"><path fill="#dddddd" d="M 20.980469 44.425781 L 71.753906 44.425781 L 71.753906 50.402344 L 20.980469 50.402344 Z M 20.980469 44.425781 " fill-opacity="1" fill-rule="nonzero"/></g><g clip-path="url(#0593dffe5a)"><path fill="#dddddd" d="M 20.980469 53.386719 L 71.753906 53.386719 L 71.753906 59.359375 L 20.980469 59.359375 Z M 20.980469 53.386719 " fill-opacity="1" fill-rule="nonzero"/></g><g clip-path="url(#9a0862a8d3)"><path fill="#ffffff" d="M 20.980469 62.347656 L 54.550781 62.347656 L 54.550781 68.320312 L 20.980469 68.320312 Z M 20.980469 62.347656 " fill-opacity="1" fill-rule="nonzero"/></g><g clip-path="url(#c6ddc6e75c)"><path stroke-linecap="butt" transform="matrix(0.746681, 0, 0, 0.746681, 20.981083, 62.34831)" fill="none" stroke-linejoin="miter" d="M -0.000822005 -0.000874946 L 44.953302 -0.000874946 L 44.953302 7.998061 L -0.000822005 7.998061 Z M -0.000822005 -0.000874946 " stroke="#2271b1" stroke-width="4" stroke-opacity="1" stroke-miterlimit="4"/></g><g clip-path="url(#e356f6ac96)"><path stroke-linecap="butt" transform="matrix(0.746681, 0, 0, 0.746681, 58.31515, 62.347894)" fill-opacity="1" fill="#2271b1" fill-rule="nonzero" stroke-linejoin="miter" d="M 0.00168282 -0.000318146 L 17.99798 -0.000318146 L 17.99798 7.998618 L 0.00168282 7.998618 Z M 0.00168282 -0.000318146 " stroke="#2271b1" stroke-width="2" stroke-opacity="1" stroke-miterlimit="4"/></g><g clip-path="url(#3c4858052d)"><path stroke-linecap="butt" transform="matrix(0.746681, 0, 0, 0.746681, 0.0829678, 11.20022)" fill="none" stroke-linejoin="miter" d="M -0.00125422 -0.00134153 L 124.999773 -0.00134153 L 124.999773 135.002279 L -0.00125422 135.002279 Z M -0.00125422 -0.00134153 " stroke="#2271b1" stroke-width="4" stroke-opacity="1" stroke-miterlimit="4"/></g><g clip-path="url(#5b2d5b5f27)"><path fill="#000000" d="M 31.820312 20.402344 L 20.25 13.8125 L 21.835938 26.902344 L 24.996094 23.316406 L 25.011719 23.304688 L 28.179688 28.175781 L 30.414062 26.722656 L 27.234375 21.828125 L 27.246094 21.820312 L 31.820312 20.402344 " fill-opacity="1" fill-rule="nonzero"/></g><g clip-path="url(#b8a7835815)"><path fill="#ffffff" d="M 30.628906 20.476562 L 19.054688 13.886719 L 20.640625 26.976562 L 23.800781 23.390625 L 23.816406 23.378906 L 26.984375 28.253906 L 29.222656 26.796875 L 26.039062 21.902344 L 26.050781 21.894531 L 30.628906 20.476562 " fill-opacity="1" fill-rule="nonzero"/></g></svg>