<svg xmlns="http://www.w3.org/2000/svg" xmlns:xlink="http://www.w3.org/1999/xlink" width="125" zoomAndPan="magnify" viewBox="0 0 93.75 112.499997" height="150" preserveAspectRatio="xMidYMid meet" version="1.0"><defs><filter x="0%" y="0%" width="100%" height="100%" id="d6475ded84"><feColorMatrix values="0 0 0 0 1 0 0 0 0 1 0 0 0 0 1 0 0 0 1 0" color-interpolation-filters="sRGB"/></filter><clipPath id="f2d560b447"><path d="M 0.0820312 0 L 93.417969 0 L 93.417969 112.003906 L 0.0820312 112.003906 Z M 0.0820312 0 " clip-rule="nonzero"/></clipPath><clipPath id="3109161746"><path d="M 1.578125 1.492188 L 91.925781 1.492188 L 91.925781 13.78125 L 1.578125 13.78125 Z M 1.578125 1.492188 " clip-rule="nonzero"/></clipPath><clipPath id="3dc1d3ef8e"><path d="M 4.902344 4.851562 L 8.515625 4.851562 L 8.515625 8.46875 L 4.902344 8.46875 Z M 4.902344 4.851562 " clip-rule="nonzero"/></clipPath><clipPath id="a5af1a9b6c"><path d="M 6.707031 4.851562 C 5.710938 4.851562 4.902344 5.664062 4.902344 6.660156 C 4.902344 7.660156 5.710938 8.46875 6.707031 8.46875 C 7.707031 8.46875 8.515625 7.660156 8.515625 6.660156 C 8.515625 5.664062 7.707031 4.851562 6.707031 4.851562 Z M 6.707031 4.851562 " clip-rule="nonzero"/></clipPath><clipPath id="23f7863c5e"><path d="M 10.609375 4.851562 L 14.226562 4.851562 L 14.226562 8.46875 L 10.609375 8.46875 Z M 10.609375 4.851562 " clip-rule="nonzero"/></clipPath><clipPath id="f0383a9194"><path d="M 12.417969 4.851562 C 11.421875 4.851562 10.609375 5.664062 10.609375 6.660156 C 10.609375 7.660156 11.421875 8.46875 12.417969 8.46875 C 13.417969 8.46875 14.226562 7.660156 14.226562 6.660156 C 14.226562 5.664062 13.417969 4.851562 12.417969 4.851562 Z M 12.417969 4.851562 " clip-rule="nonzero"/></clipPath><clipPath id="51b8ae1631"><path d="M 16.320312 4.851562 L 19.933594 4.851562 L 19.933594 8.46875 L 16.320312 8.46875 Z M 16.320312 4.851562 " clip-rule="nonzero"/></clipPath><clipPath id="ff1e095620"><path d="M 18.128906 4.851562 C 17.128906 4.851562 16.320312 5.664062 16.320312 6.660156 C 16.320312 7.660156 17.128906 8.46875 18.128906 8.46875 C 19.125 8.46875 19.933594 7.660156 19.933594 6.660156 C 19.933594 5.664062 19.125 4.851562 18.128906 4.851562 Z M 18.128906 4.851562 " clip-rule="nonzero"/></clipPath><clipPath id="465470e069"><path d="M 0.0820312 0 L 93.417969 0 L 93.417969 15.679688 L 0.0820312 15.679688 Z M 0.0820312 0 " clip-rule="nonzero"/></clipPath><clipPath id="331b8f9cb8"><path d="M 3.070312 0 L 90.429688 0 C 92.082031 0 93.417969 1.335938 93.417969 2.988281 L 93.417969 12.695312 C 93.417969 14.34375 92.082031 15.679688 90.429688 15.679688 L 3.070312 15.679688 C 1.421875 15.679688 0.0820312 14.34375 0.0820312 12.695312 L 0.0820312 2.988281 C 0.0820312 1.335938 1.421875 0 3.070312 0 Z M 3.070312 0 " clip-rule="nonzero"/></clipPath><clipPath id="360eee1f4f"><path d="M 0.0820312 11.199219 L 93.417969 11.199219 L 93.417969 112.003906 L 0.0820312 112.003906 Z M 0.0820312 11.199219 " clip-rule="nonzero"/></clipPath><clipPath id="903dd4dcfc"><path d="M 5.683594 27.179688 L 87.816406 27.179688 L 87.816406 33.152344 L 5.683594 33.152344 Z M 5.683594 27.179688 " clip-rule="nonzero"/></clipPath><clipPath id="34a0cd721a"><path d="M 5.683594 37.632812 L 65.417969 37.632812 L 65.417969 43.605469 L 5.683594 43.605469 Z M 5.683594 37.632812 " clip-rule="nonzero"/></clipPath><clipPath id="cd0e80f357"><path d="M 5.683594 79.445312 L 87.816406 79.445312 L 87.816406 85.421875 L 5.683594 85.421875 Z M 5.683594 79.445312 " clip-rule="nonzero"/></clipPath><clipPath id="8be587d9e0"><path d="M 5.683594 89.902344 L 87.816406 89.902344 L 87.816406 95.875 L 5.683594 95.875 Z M 5.683594 89.902344 " clip-rule="nonzero"/></clipPath><clipPath id="08217d11a6"><path d="M 5.683594 100.355469 L 65.417969 100.355469 L 65.417969 106.328125 L 5.683594 106.328125 Z M 5.683594 100.355469 " clip-rule="nonzero"/></clipPath><clipPath id="447c523250"><path d="M 5.683594 48.085938 L 87.816406 48.085938 L 87.816406 54.058594 L 5.683594 54.058594 Z M 5.683594 48.085938 " clip-rule="nonzero"/></clipPath><clipPath id="f25522621e"><path d="M 5.683594 58.539062 L 87.816406 58.539062 L 87.816406 64.511719 L 5.683594 64.511719 Z M 5.683594 58.539062 " clip-rule="nonzero"/></clipPath><clipPath id="ab068fafb1"><path d="M 5.683594 68.992188 L 65.417969 68.992188 L 65.417969 74.96875 L 5.683594 74.96875 Z M 5.683594 68.992188 " clip-rule="nonzero"/></clipPath><clipPath id="5fc8049e46"><path d="M 0.0820312 11.199219 L 93.417969 11.199219 L 93.417969 112.003906 L 0.0820312 112.003906 Z M 0.0820312 11.199219 " clip-rule="nonzero"/></clipPath><clipPath id="e3ecf25d01"><path d="M 0.0820312 4 L 93.417969 4 L 93.417969 33 L 0.0820312 33 Z M 0.0820312 4 " clip-rule="nonzero"/></clipPath><mask id="4e4d875075"><g filter="url(#d6475ded84)"><rect x="-9.375" width="112.5" fill="#000000" y="-11.25" height="134.999996" fill-opacity="0.55"/></g></mask><clipPath id="bea0b97a3c"><path d="M 0.0820312 7.199219 L 93.417969 7.199219 L 93.417969 22.132812 L 0.0820312 22.132812 Z M 0.0820312 7.199219 " clip-rule="nonzero"/></clipPath><clipPath id="48a7196981"><rect x="0" width="94" y="0" height="29"/></clipPath><clipPath id="28a856fee2"><path d="M 4.5625 16.578125 L 34.429688 16.578125 L 34.429688 22.550781 L 4.5625 22.550781 Z M 4.5625 16.578125 " clip-rule="nonzero"/></clipPath><clipPath id="76101786cc"><path d="M 74.378906 16.578125 L 87.816406 16.578125 L 87.816406 22.550781 L 74.378906 22.550781 Z M 74.378906 16.578125 " clip-rule="nonzero"/></clipPath><clipPath id="b5dfbdd8c0"><path d="M 39.46875 16.578125 L 69.335938 16.578125 L 69.335938 22.550781 L 39.46875 22.550781 Z M 39.46875 16.578125 " clip-rule="nonzero"/></clipPath></defs><g clip-path="url(#f2d560b447)"><path fill="#ffffff" d="M 0.0820312 0 L 93.417969 0 L 93.417969 112.003906 L 0.0820312 112.003906 Z M 0.0820312 0 " fill-opacity="1" fill-rule="nonzero"/><path fill="#ffffff" d="M 0.0820312 0 L 93.417969 0 L 93.417969 112.003906 L 0.0820312 112.003906 Z M 0.0820312 0 " fill-opacity="1" fill-rule="nonzero"/></g><g clip-path="url(#3109161746)"><path fill="#dddddd" d="M 1.578125 1.492188 L 91.925781 1.492188 L 91.925781 13.78125 L 1.578125 13.78125 Z M 1.578125 1.492188 " fill-opacity="1" fill-rule="nonzero"/></g><g clip-path="url(#3dc1d3ef8e)"><g clip-path="url(#a5af1a9b6c)"><path fill="#2271b1" d="M 4.902344 4.851562 L 8.515625 4.851562 L 8.515625 8.46875 L 4.902344 8.46875 Z M 4.902344 4.851562 " fill-opacity="1" fill-rule="nonzero"/></g></g><g clip-path="url(#23f7863c5e)"><g clip-path="url(#f0383a9194)"><path fill="#2271b1" d="M 10.609375 4.851562 L 14.226562 4.851562 L 14.226562 8.46875 L 10.609375 8.46875 Z M 10.609375 4.851562 " fill-opacity="1" fill-rule="nonzero"/></g></g><g clip-path="url(#51b8ae1631)"><g clip-path="url(#ff1e095620)"><path fill="#2271b1" d="M 16.320312 4.851562 L 19.933594 4.851562 L 19.933594 8.46875 L 16.320312 8.46875 Z M 16.320312 4.851562 " fill-opacity="1" fill-rule="nonzero"/></g></g><g clip-path="url(#465470e069)"><g clip-path="url(#331b8f9cb8)"><path stroke-linecap="butt" transform="matrix(0.746681, 0, 0, 0.746681, 0.0829673, 0)" fill="none" stroke-linejoin="miter" d="M 4.00083 0 L 120.99769 0 C 123.210607 0 124.999774 1.789167 124.999774 4.002084 L 124.999774 17.002316 C 124.999774 19.210001 123.210607 20.999168 120.99769 20.999168 L 4.00083 20.999168 C 1.793145 20.999168 -0.00125359 19.210001 -0.00125359 17.002316 L -0.00125359 4.002084 C -0.00125359 1.789167 1.793145 0 4.00083 0 Z M 4.00083 0 " stroke="#2271b1" stroke-width="4" stroke-opacity="1" stroke-miterlimit="4"/></g></g><g clip-path="url(#360eee1f4f)"><path fill="#ffffff" d="M 0.0820312 11.199219 L 93.417969 11.199219 L 93.417969 112.003906 L 0.0820312 112.003906 Z M 0.0820312 11.199219 " fill-opacity="1" fill-rule="nonzero"/></g><g clip-path="url(#903dd4dcfc)"><path fill="#e7e7e7" d="M 5.683594 27.179688 L 87.816406 27.179688 L 87.816406 33.152344 L 5.683594 33.152344 Z M 5.683594 27.179688 " fill-opacity="1" fill-rule="nonzero"/></g><g clip-path="url(#34a0cd721a)"><path fill="#e7e7e7" d="M 5.683594 37.632812 L 65.417969 37.632812 L 65.417969 43.605469 L 5.683594 43.605469 Z M 5.683594 37.632812 " fill-opacity="1" fill-rule="nonzero"/></g><g clip-path="url(#cd0e80f357)"><path fill="#e7e7e7" d="M 5.683594 79.445312 L 87.816406 79.445312 L 87.816406 85.421875 L 5.683594 85.421875 Z M 5.683594 79.445312 " fill-opacity="1" fill-rule="nonzero"/></g><g clip-path="url(#8be587d9e0)"><path fill="#e7e7e7" d="M 5.683594 89.902344 L 87.816406 89.902344 L 87.816406 95.875 L 5.683594 95.875 Z M 5.683594 89.902344 " fill-opacity="1" fill-rule="nonzero"/></g><g clip-path="url(#08217d11a6)"><path fill="#e7e7e7" d="M 5.683594 100.355469 L 65.417969 100.355469 L 65.417969 106.328125 L 5.683594 106.328125 Z M 5.683594 100.355469 " fill-opacity="1" fill-rule="nonzero"/></g><g clip-path="url(#447c523250)"><path fill="#e7e7e7" d="M 5.683594 48.085938 L 87.816406 48.085938 L 87.816406 54.058594 L 5.683594 54.058594 Z M 5.683594 48.085938 " fill-opacity="1" fill-rule="nonzero"/></g><g clip-path="url(#f25522621e)"><path fill="#e7e7e7" d="M 5.683594 58.539062 L 87.816406 58.539062 L 87.816406 64.511719 L 5.683594 64.511719 Z M 5.683594 58.539062 " fill-opacity="1" fill-rule="nonzero"/></g><g clip-path="url(#ab068fafb1)"><path fill="#e7e7e7" d="M 5.683594 68.992188 L 65.417969 68.992188 L 65.417969 74.96875 L 5.683594 74.96875 Z M 5.683594 68.992188 " fill-opacity="1" fill-rule="nonzero"/></g><g clip-path="url(#5fc8049e46)"><path stroke-linecap="butt" transform="matrix(0.746681, 0, 0, 0.746681, 0.0829678, 11.20022)" fill="none" stroke-linejoin="miter" d="M -0.00125422 -0.00134153 L 124.999773 -0.00134153 L 124.999773 135.002279 L -0.00125422 135.002279 Z M -0.00125422 -0.00134153 " stroke="#2271b1" stroke-width="4" stroke-opacity="1" stroke-miterlimit="4"/></g><g clip-path="url(#e3ecf25d01)"><g mask="url(#4e4d875075)"><g transform="matrix(1, 0, 0, 1, 0, 4)"><g clip-path="url(#48a7196981)"><g clip-path="url(#bea0b97a3c)"><path stroke-linecap="butt" transform="matrix(0.746681, 0, 0, 0.746681, 0.0829681, 7.20022)" fill-opacity="1" fill="#2271b1" fill-rule="nonzero" stroke-linejoin="miter" d="M -0.00125469 -0.00134153 L 124.999773 -0.00134153 L 124.999773 19.998614 L -0.00125469 19.998614 Z M -0.00125469 -0.00134153 " stroke="#2271b1" stroke-width="4" stroke-opacity="1" stroke-miterlimit="4"/></g></g></g></g></g><g clip-path="url(#28a856fee2)"><path stroke-linecap="butt" transform="matrix(0.746681, 0, 0, 0.746681, 4.563055, 16.576326)" fill-opacity="1" fill="#ffffff" fill-rule="nonzero" stroke-linejoin="miter" d="M -0.000742793 0.00240898 L 39.999167 0.00240898 L 39.999167 8.001345 L -0.000742793 8.001345 Z M -0.000742793 0.00240898 " stroke="#2271b1" stroke-width="4" stroke-opacity="1" stroke-miterlimit="4"/></g><g clip-path="url(#76101786cc)"><path stroke-linecap="butt" transform="matrix(0.746681, 0, 0, 0.746681, 74.377762, 16.576326)" fill-opacity="1" fill="#2271b1" fill-rule="nonzero" stroke-linejoin="miter" d="M 0.001533 0.00240898 L 17.997831 0.00240898 L 17.997831 8.001345 L 0.001533 8.001345 Z M 0.001533 0.00240898 " stroke="#2271b1" stroke-width="2" stroke-opacity="1" stroke-miterlimit="4"/></g><g clip-path="url(#b5dfbdd8c0)"><path stroke-linecap="butt" transform="matrix(0.746681, 0, 0, 0.746681, 39.470408, 16.576326)" fill-opacity="1" fill="#ffffff" fill-rule="nonzero" stroke-linejoin="miter" d="M -0.00222032 0.00240898 L 39.99769 0.00240898 L 39.99769 8.001345 L -0.00222032 8.001345 Z M -0.00222032 0.00240898 " stroke="#2271b1" stroke-width="4" stroke-opacity="1" stroke-miterlimit="4"/></g></svg>