<svg xmlns="http://www.w3.org/2000/svg" xmlns:xlink="http://www.w3.org/1999/xlink" width="125" zoomAndPan="magnify" viewBox="0 0 93.75 112.499997" height="150" preserveAspectRatio="xMidYMid meet" version="1.0"><defs><clipPath id="5bfd9de981"><path d="M 0.0820312 0 L 93.417969 0 L 93.417969 112.003906 L 0.0820312 112.003906 Z M 0.0820312 0 " clip-rule="nonzero"/></clipPath><clipPath id="16d688f873"><path d="M 1.578125 1.492188 L 91.925781 1.492188 L 91.925781 13.78125 L 1.578125 13.78125 Z M 1.578125 1.492188 " clip-rule="nonzero"/></clipPath><clipPath id="ff30f1678c"><path d="M 4.902344 4.851562 L 8.515625 4.851562 L 8.515625 8.46875 L 4.902344 8.46875 Z M 4.902344 4.851562 " clip-rule="nonzero"/></clipPath><clipPath id="fe6ceac925"><path d="M 6.707031 4.851562 C 5.710938 4.851562 4.902344 5.664062 4.902344 6.660156 C 4.902344 7.660156 5.710938 8.46875 6.707031 8.46875 C 7.707031 8.46875 8.515625 7.660156 8.515625 6.660156 C 8.515625 5.664062 7.707031 4.851562 6.707031 4.851562 Z M 6.707031 4.851562 " clip-rule="nonzero"/></clipPath><clipPath id="4266f79c2f"><path d="M 10.609375 4.851562 L 14.226562 4.851562 L 14.226562 8.46875 L 10.609375 8.46875 Z M 10.609375 4.851562 " clip-rule="nonzero"/></clipPath><clipPath id="1a50d2b3cb"><path d="M 12.417969 4.851562 C 11.421875 4.851562 10.609375 5.664062 10.609375 6.660156 C 10.609375 7.660156 11.421875 8.46875 12.417969 8.46875 C 13.417969 8.46875 14.226562 7.660156 14.226562 6.660156 C 14.226562 5.664062 13.417969 4.851562 12.417969 4.851562 Z M 12.417969 4.851562 " clip-rule="nonzero"/></clipPath><clipPath id="6b8293f6a1"><path d="M 16.320312 4.851562 L 19.933594 4.851562 L 19.933594 8.46875 L 16.320312 8.46875 Z M 16.320312 4.851562 " clip-rule="nonzero"/></clipPath><clipPath id="c2f4d5b9e4"><path d="M 18.128906 4.851562 C 17.128906 4.851562 16.320312 5.664062 16.320312 6.660156 C 16.320312 7.660156 17.128906 8.46875 18.128906 8.46875 C 19.125 8.46875 19.933594 7.660156 19.933594 6.660156 C 19.933594 5.664062 19.125 4.851562 18.128906 4.851562 Z M 18.128906 4.851562 " clip-rule="nonzero"/></clipPath><clipPath id="95c0205861"><path d="M 0.0820312 0 L 93.417969 0 L 93.417969 15.679688 L 0.0820312 15.679688 Z M 0.0820312 0 " clip-rule="nonzero"/></clipPath><clipPath id="f60f5ea3da"><path d="M 3.070312 0 L 90.429688 0 C 92.082031 0 93.417969 1.335938 93.417969 2.988281 L 93.417969 12.695312 C 93.417969 14.34375 92.082031 15.679688 90.429688 15.679688 L 3.070312 15.679688 C 1.421875 15.679688 0.0820312 14.34375 0.0820312 12.695312 L 0.0820312 2.988281 C 0.0820312 1.335938 1.421875 0 3.070312 0 Z M 3.070312 0 " clip-rule="nonzero"/></clipPath><clipPath id="04e990cd55"><path d="M 0.0820312 11.199219 L 93.417969 11.199219 L 93.417969 112.003906 L 0.0820312 112.003906 Z M 0.0820312 11.199219 " clip-rule="nonzero"/></clipPath><clipPath id="e334d27f0d"><path d="M 5.683594 16.726562 L 87.816406 16.726562 L 87.816406 22.699219 L 5.683594 22.699219 Z M 5.683594 16.726562 " clip-rule="nonzero"/></clipPath><clipPath id="60b3be562a"><path d="M 5.683594 27.179688 L 87.816406 27.179688 L 87.816406 33.152344 L 5.683594 33.152344 Z M 5.683594 27.179688 " clip-rule="nonzero"/></clipPath><clipPath id="d3941823dc"><path d="M 5.683594 37.632812 L 65.417969 37.632812 L 65.417969 43.605469 L 5.683594 43.605469 Z M 5.683594 37.632812 " clip-rule="nonzero"/></clipPath><clipPath id="5650ae08af"><path d="M 5.683594 79.445312 L 87.816406 79.445312 L 87.816406 85.421875 L 5.683594 85.421875 Z M 5.683594 79.445312 " clip-rule="nonzero"/></clipPath><clipPath id="3a81fe6bf6"><path d="M 5.683594 89.902344 L 87.816406 89.902344 L 87.816406 95.875 L 5.683594 95.875 Z M 5.683594 89.902344 " clip-rule="nonzero"/></clipPath><clipPath id="a8d650b15a"><path d="M 5.683594 100.355469 L 65.417969 100.355469 L 65.417969 106.328125 L 5.683594 106.328125 Z M 5.683594 100.355469 " clip-rule="nonzero"/></clipPath><clipPath id="b8504a2d40"><path d="M 5.683594 48.085938 L 87.816406 48.085938 L 87.816406 54.058594 L 5.683594 54.058594 Z M 5.683594 48.085938 " clip-rule="nonzero"/></clipPath><clipPath id="8a0f6a34fe"><path d="M 5.683594 58.539062 L 87.816406 58.539062 L 87.816406 64.511719 L 5.683594 64.511719 Z M 5.683594 58.539062 " clip-rule="nonzero"/></clipPath><clipPath id="34ce949c7f"><path d="M 5.683594 68.992188 L 65.417969 68.992188 L 65.417969 74.96875 L 5.683594 74.96875 Z M 5.683594 68.992188 " clip-rule="nonzero"/></clipPath><clipPath id="41f7e6fb96"><path d="M 20.019531 78.402344 L 79.753906 78.402344 L 79.753906 112.003906 L 20.019531 112.003906 Z M 20.019531 78.402344 " clip-rule="nonzero"/></clipPath><clipPath id="8515d618ee"><path d="M 24.117188 83.628906 L 74.890625 83.628906 L 74.890625 89.601562 L 24.117188 89.601562 Z M 24.117188 83.628906 " clip-rule="nonzero"/></clipPath><clipPath id="895ba7aaf5"><path d="M 24.117188 92.589844 L 74.890625 92.589844 L 74.890625 98.5625 L 24.117188 98.5625 Z M 24.117188 92.589844 " clip-rule="nonzero"/></clipPath><clipPath id="5b0173bc64"><path d="M 24.117188 101.546875 L 57.6875 101.546875 L 57.6875 107.523438 L 24.117188 107.523438 Z M 24.117188 101.546875 " clip-rule="nonzero"/></clipPath><clipPath id="4f956b4991"><path d="M 24.117188 101.550781 L 57.683594 101.550781 L 57.683594 107.523438 L 24.117188 107.523438 Z M 24.117188 101.550781 " clip-rule="nonzero"/></clipPath><clipPath id="595a19d5c3"><path d="M 61.453125 101.546875 L 74.890625 101.546875 L 74.890625 107.523438 L 61.453125 107.523438 Z M 61.453125 101.546875 " clip-rule="nonzero"/></clipPath><clipPath id="9196adf068"><path d="M 0.0820312 11.199219 L 93.417969 11.199219 L 93.417969 112.003906 L 0.0820312 112.003906 Z M 0.0820312 11.199219 " clip-rule="nonzero"/></clipPath></defs><g clip-path="url(#5bfd9de981)"><path fill="#ffffff" d="M 0.0820312 0 L 93.417969 0 L 93.417969 112.003906 L 0.0820312 112.003906 Z M 0.0820312 0 " fill-opacity="1" fill-rule="nonzero"/><path fill="#ffffff" d="M 0.0820312 0 L 93.417969 0 L 93.417969 112.003906 L 0.0820312 112.003906 Z M 0.0820312 0 " fill-opacity="1" fill-rule="nonzero"/></g><g clip-path="url(#16d688f873)"><path fill="#dddddd" d="M 1.578125 1.492188 L 91.925781 1.492188 L 91.925781 13.78125 L 1.578125 13.78125 Z M 1.578125 1.492188 " fill-opacity="1" fill-rule="nonzero"/></g><g clip-path="url(#ff30f1678c)"><g clip-path="url(#fe6ceac925)"><path fill="#2271b1" d="M 4.902344 4.851562 L 8.515625 4.851562 L 8.515625 8.46875 L 4.902344 8.46875 Z M 4.902344 4.851562 " fill-opacity="1" fill-rule="nonzero"/></g></g><g clip-path="url(#4266f79c2f)"><g clip-path="url(#1a50d2b3cb)"><path fill="#2271b1" d="M 10.609375 4.851562 L 14.226562 4.851562 L 14.226562 8.46875 L 10.609375 8.46875 Z M 10.609375 4.851562 " fill-opacity="1" fill-rule="nonzero"/></g></g><g clip-path="url(#6b8293f6a1)"><g clip-path="url(#c2f4d5b9e4)"><path fill="#2271b1" d="M 16.320312 4.851562 L 19.933594 4.851562 L 19.933594 8.46875 L 16.320312 8.46875 Z M 16.320312 4.851562 " fill-opacity="1" fill-rule="nonzero"/></g></g><g clip-path="url(#95c0205861)"><g clip-path="url(#f60f5ea3da)"><path stroke-linecap="butt" transform="matrix(0.746681, 0, 0, 0.746681, 0.0829673, 0)" fill="none" stroke-linejoin="miter" d="M 4.00083 0 L 120.99769 0 C 123.210607 0 124.999774 1.789167 124.999774 4.002084 L 124.999774 17.002316 C 124.999774 19.210001 123.210607 20.999168 120.99769 20.999168 L 4.00083 20.999168 C 1.793145 20.999168 -0.00125359 19.210001 -0.00125359 17.002316 L -0.00125359 4.002084 C -0.00125359 1.789167 1.793145 0 4.00083 0 Z M 4.00083 0 " stroke="#2271b1" stroke-width="4" stroke-opacity="1" stroke-miterlimit="4"/></g></g><g clip-path="url(#04e990cd55)"><path fill="#ffffff" d="M 0.0820312 11.199219 L 93.417969 11.199219 L 93.417969 112.003906 L 0.0820312 112.003906 Z M 0.0820312 11.199219 " fill-opacity="1" fill-rule="nonzero"/></g><g clip-path="url(#e334d27f0d)"><path fill="#e7e7e7" d="M 5.683594 16.726562 L 87.816406 16.726562 L 87.816406 22.699219 L 5.683594 22.699219 Z M 5.683594 16.726562 " fill-opacity="1" fill-rule="nonzero"/></g><g clip-path="url(#60b3be562a)"><path fill="#e7e7e7" d="M 5.683594 27.179688 L 87.816406 27.179688 L 87.816406 33.152344 L 5.683594 33.152344 Z M 5.683594 27.179688 " fill-opacity="1" fill-rule="nonzero"/></g><g clip-path="url(#d3941823dc)"><path fill="#e7e7e7" d="M 5.683594 37.632812 L 65.417969 37.632812 L 65.417969 43.605469 L 5.683594 43.605469 Z M 5.683594 37.632812 " fill-opacity="1" fill-rule="nonzero"/></g><g clip-path="url(#5650ae08af)"><path fill="#e7e7e7" d="M 5.683594 79.445312 L 87.816406 79.445312 L 87.816406 85.421875 L 5.683594 85.421875 Z M 5.683594 79.445312 " fill-opacity="1" fill-rule="nonzero"/></g><g clip-path="url(#3a81fe6bf6)"><path fill="#e7e7e7" d="M 5.683594 89.902344 L 87.816406 89.902344 L 87.816406 95.875 L 5.683594 95.875 Z M 5.683594 89.902344 " fill-opacity="1" fill-rule="nonzero"/></g><g clip-path="url(#a8d650b15a)"><path fill="#e7e7e7" d="M 5.683594 100.355469 L 65.417969 100.355469 L 65.417969 106.328125 L 5.683594 106.328125 Z M 5.683594 100.355469 " fill-opacity="1" fill-rule="nonzero"/></g><g clip-path="url(#b8504a2d40)"><path fill="#e7e7e7" d="M 5.683594 48.085938 L 87.816406 48.085938 L 87.816406 54.058594 L 5.683594 54.058594 Z M 5.683594 48.085938 " fill-opacity="1" fill-rule="nonzero"/></g><g clip-path="url(#8a0f6a34fe)"><path fill="#e7e7e7" d="M 5.683594 58.539062 L 87.816406 58.539062 L 87.816406 64.511719 L 5.683594 64.511719 Z M 5.683594 58.539062 " fill-opacity="1" fill-rule="nonzero"/></g><g clip-path="url(#34ce949c7f)"><path fill="#e7e7e7" d="M 5.683594 68.992188 L 65.417969 68.992188 L 65.417969 74.96875 L 5.683594 74.96875 Z M 5.683594 68.992188 " fill-opacity="1" fill-rule="nonzero"/></g><g clip-path="url(#41f7e6fb96)"><path stroke-linecap="butt" transform="matrix(0.746681, 0, 0, 0.746681, 20.019358, 78.401543)" fill-opacity="1" fill="#ffffff" fill-rule="nonzero" stroke-linejoin="miter" d="M 0.000231539 0.00107227 L 80.000052 0.00107227 L 80.000052 45.002279 L 0.000231539 45.002279 Z M 0.000231539 0.00107227 " stroke="#2271b1" stroke-width="4" stroke-opacity="1" stroke-miterlimit="4"/></g><g clip-path="url(#8515d618ee)"><path fill="#dddddd" d="M 24.117188 83.628906 L 74.890625 83.628906 L 74.890625 89.601562 L 24.117188 89.601562 Z M 24.117188 83.628906 " fill-opacity="1" fill-rule="nonzero"/></g><g clip-path="url(#895ba7aaf5)"><path fill="#dddddd" d="M 24.117188 92.589844 L 74.890625 92.589844 L 74.890625 98.5625 L 24.117188 98.5625 Z M 24.117188 92.589844 " fill-opacity="1" fill-rule="nonzero"/></g><g clip-path="url(#5b0173bc64)"><path fill="#ffffff" d="M 24.117188 101.546875 L 57.6875 101.546875 L 57.6875 107.523438 L 24.117188 107.523438 Z M 24.117188 101.546875 " fill-opacity="1" fill-rule="nonzero"/></g><g clip-path="url(#4f956b4991)"><path stroke-linecap="butt" transform="matrix(0.746681, 0, 0, 0.746681, 24.117146, 101.549081)" fill="none" stroke-linejoin="miter" d="M 0.0000553627 0.00227693 L 44.954179 0.00227693 L 44.954179 8.001213 L 0.0000553627 8.001213 Z M 0.0000553627 0.00227693 " stroke="#2271b1" stroke-width="4" stroke-opacity="1" stroke-miterlimit="4"/></g><g clip-path="url(#595a19d5c3)"><path stroke-linecap="butt" transform="matrix(0.746681, 0, 0, 0.746681, 61.451219, 101.548665)" fill-opacity="1" fill="#2271b1" fill-rule="nonzero" stroke-linejoin="miter" d="M 0.00255315 -0.00239775 L 17.998851 -0.00239775 L 17.998851 8.001769 L 0.00255315 8.001769 Z M 0.00255315 -0.00239775 " stroke="#2271b1" stroke-width="2" stroke-opacity="1" stroke-miterlimit="4"/></g><g clip-path="url(#9196adf068)"><path stroke-linecap="butt" transform="matrix(0.746681, 0, 0, 0.746681, 0.0829678, 11.20022)" fill="none" stroke-linejoin="miter" d="M -0.00125422 -0.00134153 L 124.999773 -0.00134153 L 124.999773 135.002279 L -0.00125422 135.002279 Z M -0.00125422 -0.00134153 " stroke="#2271b1" stroke-width="4" stroke-opacity="1" stroke-miterlimit="4"/></g></svg>