<?xml version="1.0" standalone="no"?>
<!DOCTYPE svg PUBLIC "-//W3C//DTD SVG 20010904//EN"
 "http://www.w3.org/TR/2001/REC-SVG-20010904/DTD/svg10.dtd">
<svg version="1.0" xmlns="http://www.w3.org/2000/svg"
 width="1242.000000pt" height="372.000000pt" viewBox="0 0 1242.000000 372.000000"
 preserveAspectRatio="xMidYMid meet">
<metadata>
Created by potrace 1.10, written by Peter Selinger 2001-2011
</metadata>
<g transform="translate(0.000000,372.000000) scale(0.100000,-0.100000)"
fill="#000000" stroke="none">
<path d="M1045 2966 c-74 -15 -135 -36 -156 -53 -8 -7 -21 -13 -27 -13 -7 0
-40 -28 -75 -62 -57 -57 -78 -89 -117 -183 -17 -39 -39 -185 -40 -255 0 -31
-5 -61 -12 -68 -8 -8 -49 -12 -119 -12 -88 0 -108 -3 -113 -16 -8 -20 -8 -278
0 -298 5 -13 25 -16 119 -16 108 0 113 -1 119 -22 3 -13 6 -330 6 -704 0 -612
2 -682 16 -688 9 -3 91 -6 184 -6 128 0 170 3 179 13 8 10 12 215 13 708 l3
694 139 3 c82 1 145 7 153 14 10 8 13 45 13 142 0 191 12 176 -139 176 -171 0
-171 0 -171 64 0 56 20 131 44 169 29 44 106 77 178 77 36 0 69 5 76 12 15 15
17 291 2 319 -10 17 -21 19 -113 18 -56 -1 -129 -7 -162 -13z"/>
<path d="M1645 2958 c-3 -7 -4 -546 -3 -1198 l3 -1185 190 0 190 0 5 1183 c3
651 1 1190 -3 1198 -11 19 -375 21 -382 2z"/>
<path d="M5920 2955 c-10 -12 -11 -108 -8 -430 3 -228 1 -415 -3 -415 -5 0
-32 23 -61 51 -136 131 -314 199 -521 199 -126 0 -283 -38 -368 -89 -19 -12
-43 -25 -54 -30 -45 -21 -155 -123 -208 -194 -31 -41 -57 -79 -57 -83 0 -4 -6
-15 -13 -23 -13 -15 -60 -126 -86 -201 -16 -48 -41 -231 -41 -305 1 -71 24
-228 45 -304 41 -149 167 -337 286 -427 97 -74 227 -133 339 -154 197 -36 382
-13 535 67 65 34 158 109 184 147 13 20 27 33 32 30 5 -3 9 -49 9 -103 0 -62
4 -101 12 -109 17 -17 329 -17 346 0 9 9 12 288 12 1194 0 1068 -2 1182 -16
1188 -9 3 -91 6 -184 6 -137 0 -170 -3 -180 -15z m-345 -973 c168 -59 278
-178 339 -367 22 -69 22 -268 0 -344 -63 -213 -212 -355 -403 -383 -114 -16
-251 2 -321 43 -8 5 -25 13 -36 18 -47 21 -149 129 -181 192 -62 123 -68 152
-68 304 0 117 4 150 22 200 63 177 165 281 328 336 72 24 254 25 320 1z"/>
<path d="M10465 2958 c-3 -7 -4 -546 -3 -1198 l3 -1185 177 -3 c151 -2 178 0
192 14 15 14 16 52 16 310 -1 162 2 299 5 304 3 6 43 -29 88 -77 45 -49 128
-135 184 -193 56 -58 113 -118 128 -135 61 -67 190 -198 209 -211 16 -11 73
-14 284 -14 l263 0 -12 23 c-7 12 -16 24 -20 27 -5 4 -73 69 -151 146 -79 77
-249 240 -378 364 -287 274 -370 357 -370 368 0 5 48 51 107 103 107 94 192
170 268 238 22 20 73 65 115 101 68 59 142 125 175 157 7 7 50 44 96 84 83 71
142 130 136 135 -2 2 -120 4 -262 4 l-259 1 -295 -295 c-162 -163 -299 -296
-303 -296 -4 0 -8 274 -8 608 0 460 -3 611 -12 620 -17 17 -367 17 -373 0z"/>
<path d="M9265 2361 c-257 -30 -465 -192 -521 -407 -26 -103 -14 -244 30 -330
45 -89 153 -175 296 -236 19 -8 52 -23 73 -32 21 -9 44 -16 52 -16 8 0 29 -6
47 -14 18 -8 83 -30 143 -50 190 -61 223 -76 270 -126 28 -29 30 -37 30 -103
0 -64 -3 -76 -29 -110 -34 -44 -72 -67 -141 -84 -107 -26 -232 -8 -304 44 -46
33 -97 105 -106 150 -3 17 -12 33 -19 36 -16 7 -369 -14 -378 -22 -3 -3 0 -35
7 -71 57 -286 318 -459 691 -460 227 0 414 63 540 185 112 107 158 225 152
394 -3 92 -7 114 -32 165 -35 72 -56 97 -121 144 -69 51 -124 81 -215 116 -25
10 -58 23 -75 30 -40 17 -93 36 -130 46 -16 5 -75 25 -130 45 -55 20 -109 39
-120 42 -30 9 -87 47 -113 76 -29 31 -38 88 -23 144 28 104 201 169 337 127
93 -28 155 -82 195 -167 l23 -48 110 6 c229 12 256 15 256 33 -1 38 -29 131
-56 187 -41 84 -154 195 -239 235 -115 54 -180 69 -310 74 -66 2 -151 1 -190
-3z"/>
<path d="M3110 2344 c-212 -57 -336 -126 -466 -259 -53 -54 -164 -220 -164
-244 0 -5 -6 -22 -14 -38 -85 -173 -86 -520 -1 -718 78 -181 154 -278 300
-386 100 -74 204 -118 350 -150 150 -33 392 -19 535 32 191 67 383 224 469
384 12 22 26 47 30 55 74 132 116 378 91 530 -7 41 -16 95 -20 120 -9 55 -24
94 -67 185 -72 150 -145 238 -278 336 -97 71 -193 113 -351 153 -80 21 -336
21 -414 0z m389 -361 c20 -8 43 -19 51 -24 8 -5 25 -13 36 -18 47 -21 149
-129 181 -192 67 -136 68 -141 67 -304 0 -158 -14 -225 -64 -307 -11 -18 -23
-40 -26 -48 -4 -8 -34 -42 -68 -75 -111 -107 -217 -142 -403 -131 -87 5 -113
11 -170 37 -88 41 -133 78 -186 148 -54 72 -62 87 -89 163 -19 55 -22 84 -23
218 0 161 1 168 53 280 65 139 211 249 362 270 77 11 235 2 279 -17z"/>
<path d="M7370 2344 c-160 -42 -211 -65 -335 -150 -145 -100 -282 -292 -331
-468 -37 -128 -42 -435 -9 -530 8 -23 15 -49 15 -58 0 -24 63 -157 107 -225
107 -168 328 -320 513 -353 25 -5 65 -13 90 -19 109 -25 357 -5 495 41 232 77
390 206 489 399 26 50 17 65 -46 77 -29 6 -80 16 -113 22 -33 6 -91 16 -128
21 l-69 10 -36 -43 c-90 -107 -163 -156 -287 -189 -130 -34 -265 -19 -400 47
-67 33 -180 139 -206 194 -41 87 -50 119 -47 161 l3 44 690 5 690 5 3 76 c3
85 -11 230 -29 299 -38 146 -114 289 -208 388 -67 72 -195 172 -220 172 -5 0
-22 6 -38 14 -48 24 -105 43 -179 60 -93 21 -335 21 -414 0z m384 -334 c76
-27 133 -63 178 -113 50 -56 98 -156 101 -214 l2 -48 -476 -3 c-422 -2 -477 0
-483 13 -10 26 42 145 91 212 29 38 119 107 165 127 18 7 49 21 68 29 56 25
279 23 354 -3z"/>
</g>
</svg>
