<?xml version="1.0"?>
<svg width="600" height="79" xmlns="http://www.w3.org/2000/svg" xmlns:svg="http://www.w3.org/2000/svg">
 <style type="text/css">.st0{fill:#00BAFF;}
	.st1{fill:#FFFFFF;}
	.st2{fill:#262626;}</style>
 <g class="layer">
  <title>Layer 1</title>
  <path class="st0" d="m117.799999,69.900012c0,2.8 -2.3,5 -5,5l-107.8,0c-2.7,0.1 -5,-2.2 -5,-5l0,-64.9c0,-2.7 2.3,-5 5,-5l107.6,0c2.8,0 5,2.3 5,5l0,64.9l0.2,0z" id="svg_1"/>
  <path class="st1" d="m116.699999,1.900012c-14,21.6 -35.6,41.5 -57.9,41c-8.2,-0.1 -17.6,-2.6 -25.5,-9c-5.9,-4.8 -11.8,-12.4 -14.1,-23.1c-0.9,0 -1.6,0 -2.4,0c-3.6,0 -5.8,3.2 -5.4,6.2c0.1,0.7 0.3,1.5 0.4,2.3c1.7,10.5 7.9,22.3 18.3,30c8.1,5.9 18,9.8 28.9,9.8c19.6,0 40.6,-12.5 58.9,-44.6l0,-9.4c-0.1,-1.1 -0.5,-2.4 -1.2,-3.2z" id="svg_2"/>
  <path class="st2" d="m582.999999,24.600012c11,0 17.1,8.1 17.1,18.3c0,1.1 -0.3,3.6 -0.3,3.6l-26.6,0c0.8,6.9 5.8,10.3 11.6,10.3c6.2,0 10.9,-4.3 10.9,-4.3l4,6.7c0,0 -5.9,5.8 -15.6,5.8c-12.8,0 -20.8,-9.3 -20.8,-20.3c0.1,-11.7 8.1,-20.1 19.7,-20.1l0,0zm7.2,15.2c-0.1,-4.6 -3.4,-7.8 -7.3,-7.8c-5,0 -8.5,3 -9.4,7.8l16.7,0zm-370.6,-15.2c11,0 17.1,8.1 17.1,18.3c0,1.1 -0.3,3.6 -0.3,3.6l-26.6,0c0.8,6.9 5.8,10.3 11.6,10.3c6.2,0 10.9,-4.3 10.9,-4.3l4,6.7c0,0 -5.9,5.8 -15.6,5.8c-12.8,0 -20.8,-9.3 -20.8,-20.3c0.1,-11.7 8.2,-20.1 19.7,-20.1zm7.3,15.2c-0.1,-4.6 -3.4,-7.8 -7.3,-7.8c-5,0 -8.5,3 -9.4,7.8l16.7,0zm104,-15.2c11,0 17.1,8.1 17.1,18.3c0,1.1 -0.3,3.6 -0.3,3.6l-26.6,0c0.8,6.9 5.8,10.3 11.6,10.3c6.2,0 10.9,-4.3 10.9,-4.3l4,6.7c0,0 -5.9,5.8 -15.6,5.8c-12.8,0 -20.8,-9.3 -20.8,-20.3c0.1,-11.7 8.1,-20.1 19.7,-20.1l0,0zm7.2,15.2c-0.1,-4.6 -3.4,-7.8 -7.3,-7.8c-5,0 -8.5,3 -9.4,7.8l16.7,0zm146.4,-4.4c0,-1.1 -0.5,-1.6 -1.6,-1.6l-3.1,0l0,-8.2l8.9,0c3.4,0 5.1,1.6 5.1,4.3l0,1.1c0,0.8 -0.1,1.6 -0.1,1.6l0.1,0c1.6,-3.2 5.8,-8.1 13.7,-8.1c8.6,0 13.4,4.4 13.4,14.6l0,15.1c0,1.1 0.5,1.6 1.6,1.6l3.1,0l0,8.1l-9.1,0c-3.6,0 -5.1,-1.5 -5.1,-5.1l0,-17.5c0,-4.7 -1.2,-7.9 -6,-7.9c-5.1,0 -9,3.2 -10.3,7.9c-0.5,1.6 -0.8,3.4 -0.8,5.1l0,17.8l-9.5,0l0,-28.8l-0.3,0zm-28.4,-10.8c11.8,0 21.2,8.5 21.2,20.3c0,12 -9.4,20.3 -21.2,20.3c-11.7,0 -21.1,-8.3 -21.1,-20.3s9.4,-20.3 21.1,-20.3zm0,32.3c6.3,0 11.6,-4.8 11.6,-12.1c0,-7.1 -5.2,-12.1 -11.6,-12.1c-6.2,0 -11.4,5 -11.4,12.1c0,7.3 5.2,12.1 11.4,12.1zm-25.6,-12.1c0,12 -6.7,20.3 -17.1,20.3c-8.3,0 -11.6,-5.5 -11.6,-5.5l-0.1,0c0,0 0.1,1.3 0.1,3.4l0,16.4l-9.7,0l0,-43.9c0,-1.1 -0.7,-1.6 -1.6,-1.6l-3.1,0l0,-8.2l8.5,0c3.5,0 5,1.5 5,3.4l0,1.3l0.1,0c0,0 3.2,-5.6 12,-5.6c10.2,-0.2 17.5,7.8 17.5,20l0,0zm-19.3,12.1c5.6,0 9.7,-4.7 9.7,-12.1c0,-7.7 -4.4,-12 -9.7,-12c-6.5,0 -9.7,5.9 -9.7,12c-0.1,8.5 4.6,12.1 9.7,12.1zm-53.7,-5c0,0 5,5.6 11.6,5.6c3,0 5.2,-1.2 5.2,-3.8c0,-5.5 -20.4,-5.4 -20.4,-17.9c0,-7.8 7,-11.3 15.1,-11.3c5.2,0 13.6,1.7 13.6,8.1l0,4l-8.5,0l0,-1.9c0,-1.9 -2.7,-2.7 -4.8,-2.7c-3.4,0 -5.8,1.2 -5.8,3.5c0,6 20.6,4.8 20.6,17.7c0,7.3 -6.5,11.8 -14.9,11.8c-10.6,0 -16.1,-6.9 -16.1,-6.9l4.4,-6.2zm176,0c0,0 5,5.6 11.6,5.6c3,0 5.2,-1.2 5.2,-3.8c0,-5.5 -20.4,-5.4 -20.4,-17.9c0,-7.8 7,-11.3 15.1,-11.3c5.2,0 13.6,1.7 13.6,8.1l0,4l-8.5,0l0,-1.9c0,-1.9 -2.7,-2.7 -4.8,-2.7c-3.4,0 -5.8,1.2 -5.8,3.5c0,6 20.6,4.8 20.6,17.7c0,7.3 -6.5,11.8 -14.8,11.8c-10.6,0 -16.1,-6.9 -16.1,-6.9l4.3,-6.2zm-271.4,4.2c-2.7,0 -7.7,-0.9 -7.7,-7.3l0,-15.7l8.7,0l0,-3.5c0,-2.8 -1.2,-4 -4,-4l-2.3,0l-2.4,0l0,-10.5l-9.4,0l0,10.5l-5.2,0l0,7.7l5,0l0,16.8c0,12.9 10.8,14.5 16.1,14.5c1.7,0 3,-0.3 3,-0.3l0,-8.5c-0.1,0.2 -0.7,0.3 -1.8,0.3zm-90.4,-46.6c13.2,0 19.6,6.9 19.6,6.9l-5.6,7.1c0,0 -5.6,-4.8 -13.8,-4.8c-9.3,0 -17.3,7.4 -17.3,18.3c0,11.7 8.1,18.9 17.6,18.9c8.6,0 13.7,-5.6 13.7,-5.6l0,-4c0,-1.1 -0.7,-1.6 -1.6,-1.6l-3.2,0l0,-8.5l8.7,0c3.6,0 5.1,1.5 5.1,5.1l0,23l-8.5,0l0,-2.6c0,-1.1 0.1,-2.3 0.1,-2.3l-0.1,0c0,0 -5.8,5.8 -15.9,5.8c-14.1,0 -26.2,-10.8 -26.2,-28.1c-0.1,-15.7 11.8,-27.6 27.4,-27.6zm97.5,0.8l19.2,0c9.8,0 16.8,6 16.8,16.3c0,9.7 -6.7,13.7 -9,14.2l0,0.1c0,0 1.6,0.8 2.7,2.7l5.2,10.3c0.8,1.6 2.2,1.7 3.8,1.7l0.9,0l0,8.5l-5.1,0c-4,0 -5.8,-0.7 -7.5,-4l-6.9,-13.6c-1.1,-2.2 -2.3,-2.6 -5.1,-2.6l-5,0l0,20.3l-9.9,0l0,-53.9l-0.1,0zm17.9,25.2c5,0 7.9,-3.1 7.9,-8.5c0,-5.2 -3,-8.3 -7.8,-8.3l-8.1,0l0,16.8l8,0z" id="svg_3"/>
 </g>
</svg>