<svg xmlns="http://www.w3.org/2000/svg" xmlns:xlink="http://www.w3.org/1999/xlink" width="125" zoomAndPan="magnify" viewBox="0 0 93.75 112.499997" height="150" preserveAspectRatio="xMidYMid meet" version="1.0"><defs><clipPath id="083a4cc491"><path d="M 0.0820312 0 L 93.417969 0 L 93.417969 112.003906 L 0.0820312 112.003906 Z M 0.0820312 0 " clip-rule="nonzero"/></clipPath><clipPath id="148b2b3c00"><path d="M 1.578125 1.492188 L 91.925781 1.492188 L 91.925781 13.78125 L 1.578125 13.78125 Z M 1.578125 1.492188 " clip-rule="nonzero"/></clipPath><clipPath id="31aefefa4d"><path d="M 4.902344 4.851562 L 8.515625 4.851562 L 8.515625 8.46875 L 4.902344 8.46875 Z M 4.902344 4.851562 " clip-rule="nonzero"/></clipPath><clipPath id="9783dfe025"><path d="M 6.707031 4.851562 C 5.710938 4.851562 4.902344 5.664062 4.902344 6.660156 C 4.902344 7.660156 5.710938 8.46875 6.707031 8.46875 C 7.707031 8.46875 8.515625 7.660156 8.515625 6.660156 C 8.515625 5.664062 7.707031 4.851562 6.707031 4.851562 Z M 6.707031 4.851562 " clip-rule="nonzero"/></clipPath><clipPath id="e6e5d48bad"><path d="M 10.609375 4.851562 L 14.226562 4.851562 L 14.226562 8.46875 L 10.609375 8.46875 Z M 10.609375 4.851562 " clip-rule="nonzero"/></clipPath><clipPath id="7b1d64ec6e"><path d="M 12.417969 4.851562 C 11.421875 4.851562 10.609375 5.664062 10.609375 6.660156 C 10.609375 7.660156 11.421875 8.46875 12.417969 8.46875 C 13.417969 8.46875 14.226562 7.660156 14.226562 6.660156 C 14.226562 5.664062 13.417969 4.851562 12.417969 4.851562 Z M 12.417969 4.851562 " clip-rule="nonzero"/></clipPath><clipPath id="7185d7ef8c"><path d="M 16.320312 4.851562 L 19.933594 4.851562 L 19.933594 8.46875 L 16.320312 8.46875 Z M 16.320312 4.851562 " clip-rule="nonzero"/></clipPath><clipPath id="d9e542f73d"><path d="M 18.128906 4.851562 C 17.128906 4.851562 16.320312 5.664062 16.320312 6.660156 C 16.320312 7.660156 17.128906 8.46875 18.128906 8.46875 C 19.125 8.46875 19.933594 7.660156 19.933594 6.660156 C 19.933594 5.664062 19.125 4.851562 18.128906 4.851562 Z M 18.128906 4.851562 " clip-rule="nonzero"/></clipPath><clipPath id="1b06339a69"><path d="M 0.0820312 0 L 93.417969 0 L 93.417969 15.679688 L 0.0820312 15.679688 Z M 0.0820312 0 " clip-rule="nonzero"/></clipPath><clipPath id="7cc121809e"><path d="M 3.070312 0 L 90.429688 0 C 92.082031 0 93.417969 1.335938 93.417969 2.988281 L 93.417969 12.695312 C 93.417969 14.34375 92.082031 15.679688 90.429688 15.679688 L 3.070312 15.679688 C 1.421875 15.679688 0.0820312 14.34375 0.0820312 12.695312 L 0.0820312 2.988281 C 0.0820312 1.335938 1.421875 0 3.070312 0 Z M 3.070312 0 " clip-rule="nonzero"/></clipPath><clipPath id="058d9f5a43"><path d="M 0.0820312 11.199219 L 93.417969 11.199219 L 93.417969 112.003906 L 0.0820312 112.003906 Z M 0.0820312 11.199219 " clip-rule="nonzero"/></clipPath><clipPath id="6c8d1aefec"><path d="M 5.683594 16.726562 L 87.816406 16.726562 L 87.816406 22.699219 L 5.683594 22.699219 Z M 5.683594 16.726562 " clip-rule="nonzero"/></clipPath><clipPath id="5913a63b65"><path d="M 5.683594 27.179688 L 87.816406 27.179688 L 87.816406 33.152344 L 5.683594 33.152344 Z M 5.683594 27.179688 " clip-rule="nonzero"/></clipPath><clipPath id="fd5a5f0552"><path d="M 5.683594 79.445312 L 87.816406 79.445312 L 87.816406 85.421875 L 5.683594 85.421875 Z M 5.683594 79.445312 " clip-rule="nonzero"/></clipPath><clipPath id="9c6d8d7e76"><path d="M 5.683594 89.902344 L 87.816406 89.902344 L 87.816406 95.875 L 5.683594 95.875 Z M 5.683594 89.902344 " clip-rule="nonzero"/></clipPath><clipPath id="6d9354686f"><path d="M 5.683594 100.355469 L 65.417969 100.355469 L 65.417969 106.328125 L 5.683594 106.328125 Z M 5.683594 100.355469 " clip-rule="nonzero"/></clipPath><clipPath id="79e0b1c981"><path d="M 5.683594 39.574219 L 65.417969 39.574219 L 65.417969 73.175781 L 5.683594 73.175781 Z M 5.683594 39.574219 " clip-rule="nonzero"/></clipPath><clipPath id="3646586c7d"><path d="M 9.78125 44.800781 L 60.554688 44.800781 L 60.554688 50.773438 L 9.78125 50.773438 Z M 9.78125 44.800781 " clip-rule="nonzero"/></clipPath><clipPath id="ec0bf76f5b"><path d="M 9.78125 53.761719 L 60.554688 53.761719 L 60.554688 59.734375 L 9.78125 59.734375 Z M 9.78125 53.761719 " clip-rule="nonzero"/></clipPath><clipPath id="ae8056eb3e"><path d="M 9.78125 62.722656 L 43.351562 62.722656 L 43.351562 68.695312 L 9.78125 68.695312 Z M 9.78125 62.722656 " clip-rule="nonzero"/></clipPath><clipPath id="a68aa584b3"><path d="M 9.78125 62.722656 L 43.347656 62.722656 L 43.347656 68.695312 L 9.78125 68.695312 Z M 9.78125 62.722656 " clip-rule="nonzero"/></clipPath><clipPath id="90a6e678bc"><path d="M 47.113281 62.722656 L 60.554688 62.722656 L 60.554688 68.695312 L 47.113281 68.695312 Z M 47.113281 62.722656 " clip-rule="nonzero"/></clipPath><clipPath id="09e9249d6e"><path d="M 0.0820312 11.199219 L 93.417969 11.199219 L 93.417969 112.003906 L 0.0820312 112.003906 Z M 0.0820312 11.199219 " clip-rule="nonzero"/></clipPath></defs><g clip-path="url(#083a4cc491)"><path fill="#ffffff" d="M 0.0820312 0 L 93.417969 0 L 93.417969 112.003906 L 0.0820312 112.003906 Z M 0.0820312 0 " fill-opacity="1" fill-rule="nonzero"/><path fill="#ffffff" d="M 0.0820312 0 L 93.417969 0 L 93.417969 112.003906 L 0.0820312 112.003906 Z M 0.0820312 0 " fill-opacity="1" fill-rule="nonzero"/></g><g clip-path="url(#148b2b3c00)"><path fill="#dddddd" d="M 1.578125 1.492188 L 91.925781 1.492188 L 91.925781 13.78125 L 1.578125 13.78125 Z M 1.578125 1.492188 " fill-opacity="1" fill-rule="nonzero"/></g><g clip-path="url(#31aefefa4d)"><g clip-path="url(#9783dfe025)"><path fill="#2271b1" d="M 4.902344 4.851562 L 8.515625 4.851562 L 8.515625 8.46875 L 4.902344 8.46875 Z M 4.902344 4.851562 " fill-opacity="1" fill-rule="nonzero"/></g></g><g clip-path="url(#e6e5d48bad)"><g clip-path="url(#7b1d64ec6e)"><path fill="#2271b1" d="M 10.609375 4.851562 L 14.226562 4.851562 L 14.226562 8.46875 L 10.609375 8.46875 Z M 10.609375 4.851562 " fill-opacity="1" fill-rule="nonzero"/></g></g><g clip-path="url(#7185d7ef8c)"><g clip-path="url(#d9e542f73d)"><path fill="#2271b1" d="M 16.320312 4.851562 L 19.933594 4.851562 L 19.933594 8.46875 L 16.320312 8.46875 Z M 16.320312 4.851562 " fill-opacity="1" fill-rule="nonzero"/></g></g><g clip-path="url(#1b06339a69)"><g clip-path="url(#7cc121809e)"><path stroke-linecap="butt" transform="matrix(0.746681, 0, 0, 0.746681, 0.0829673, 0)" fill="none" stroke-linejoin="miter" d="M 4.00083 0 L 120.99769 0 C 123.210607 0 124.999774 1.789167 124.999774 4.002084 L 124.999774 17.002316 C 124.999774 19.210001 123.210607 20.999168 120.99769 20.999168 L 4.00083 20.999168 C 1.793145 20.999168 -0.00125359 19.210001 -0.00125359 17.002316 L -0.00125359 4.002084 C -0.00125359 1.789167 1.793145 0 4.00083 0 Z M 4.00083 0 " stroke="#2271b1" stroke-width="4" stroke-opacity="1" stroke-miterlimit="4"/></g></g><g clip-path="url(#058d9f5a43)"><path fill="#ffffff" d="M 0.0820312 11.199219 L 93.417969 11.199219 L 93.417969 112.003906 L 0.0820312 112.003906 Z M 0.0820312 11.199219 " fill-opacity="1" fill-rule="nonzero"/></g><g clip-path="url(#6c8d1aefec)"><path fill="#e7e7e7" d="M 5.683594 16.726562 L 87.816406 16.726562 L 87.816406 22.699219 L 5.683594 22.699219 Z M 5.683594 16.726562 " fill-opacity="1" fill-rule="nonzero"/></g><g clip-path="url(#5913a63b65)"><path fill="#e7e7e7" d="M 5.683594 27.179688 L 87.816406 27.179688 L 87.816406 33.152344 L 5.683594 33.152344 Z M 5.683594 27.179688 " fill-opacity="1" fill-rule="nonzero"/></g><g clip-path="url(#fd5a5f0552)"><path fill="#e7e7e7" d="M 5.683594 79.445312 L 87.816406 79.445312 L 87.816406 85.421875 L 5.683594 85.421875 Z M 5.683594 79.445312 " fill-opacity="1" fill-rule="nonzero"/></g><g clip-path="url(#9c6d8d7e76)"><path fill="#e7e7e7" d="M 5.683594 89.902344 L 87.816406 89.902344 L 87.816406 95.875 L 5.683594 95.875 Z M 5.683594 89.902344 " fill-opacity="1" fill-rule="nonzero"/></g><g clip-path="url(#6d9354686f)"><path fill="#e7e7e7" d="M 5.683594 100.355469 L 65.417969 100.355469 L 65.417969 106.328125 L 5.683594 106.328125 Z M 5.683594 100.355469 " fill-opacity="1" fill-rule="nonzero"/></g><g clip-path="url(#79e0b1c981)"><path stroke-linecap="butt" transform="matrix(0.746681, 0, 0, 0.746681, 5.683076, 39.574112)" fill-opacity="1" fill="#ffffff" fill-rule="nonzero" stroke-linejoin="miter" d="M 0.000693139 0.000142652 L 80.000514 0.000142652 L 80.000514 45.00135 L 0.000693139 45.00135 Z M 0.000693139 0.000142652 " stroke="#2271b1" stroke-width="4" stroke-opacity="1" stroke-miterlimit="4"/></g><g clip-path="url(#3646586c7d)"><path fill="#dddddd" d="M 9.78125 44.800781 L 60.554688 44.800781 L 60.554688 50.773438 L 9.78125 50.773438 Z M 9.78125 44.800781 " fill-opacity="1" fill-rule="nonzero"/></g><g clip-path="url(#ec0bf76f5b)"><path fill="#dddddd" d="M 9.78125 53.761719 L 60.554688 53.761719 L 60.554688 59.734375 L 9.78125 59.734375 Z M 9.78125 53.761719 " fill-opacity="1" fill-rule="nonzero"/></g><g clip-path="url(#ae8056eb3e)"><path fill="#ffffff" d="M 9.78125 62.722656 L 43.351562 62.722656 L 43.351562 68.695312 L 9.78125 68.695312 Z M 9.78125 62.722656 " fill-opacity="1" fill-rule="nonzero"/></g><g clip-path="url(#a68aa584b3)"><path stroke-linecap="butt" transform="matrix(0.746681, 0, 0, 0.746681, 9.780864, 62.72165)" fill="none" stroke-linejoin="miter" d="M 0.000516962 0.00134731 L 44.954641 0.00134731 L 44.954641 8.000283 L 0.000516962 8.000283 Z M 0.000516962 0.00134731 " stroke="#2271b1" stroke-width="4" stroke-opacity="1" stroke-miterlimit="4"/></g><g clip-path="url(#90a6e678bc)"><path stroke-linecap="butt" transform="matrix(0.746681, 0, 0, 0.746681, 47.114929, 62.721234)" fill-opacity="1" fill="#2271b1" fill-rule="nonzero" stroke-linejoin="miter" d="M -0.00220713 0.00190411 L 17.999322 0.00190411 L 17.999322 8.00084 L -0.00220713 8.00084 Z M -0.00220713 0.00190411 " stroke="#2271b1" stroke-width="2" stroke-opacity="1" stroke-miterlimit="4"/></g><g clip-path="url(#09e9249d6e)"><path stroke-linecap="butt" transform="matrix(0.746681, 0, 0, 0.746681, 0.0829678, 11.20022)" fill="none" stroke-linejoin="miter" d="M -0.00125422 -0.00134153 L 124.999773 -0.00134153 L 124.999773 135.002279 L -0.00125422 135.002279 Z M -0.00125422 -0.00134153 " stroke="#2271b1" stroke-width="4" stroke-opacity="1" stroke-miterlimit="4"/></g></svg>