<?xml version="1.0"?>
<svg width="180" height="48" xmlns="http://www.w3.org/2000/svg" xmlns:svg="http://www.w3.org/2000/svg">
 <title>mailchimp-logo_240x90_web</title>
 <g class="layer">
  <title>Layer 1</title>
  <g id="Guidelines">
   <path d="m69.799965,18.452566a4.46,4.46 0 0 0 -4,3c-0.29,0.66 -0.37,1.17 -0.61,1.17s-0.1,-0.45 -0.37,-1.44a3.62,3.62 0 0 0 -3.76,-2.72c-2.43,0 -3.46,2.05 -4,3.18c-0.33,0.77 -0.34,1 -0.59,1s-0.07,-0.61 0.1,-1.33a6.07,6.07 0 0 0 0.08,-2.5l-3.79,0l0,14.48l5.25,0l0,-7.2c0,-1.42 0.6,-3.22 1.62,-3.22c1.17,0 1.41,0.91 1.41,2.58l0,7.84l5.23,0l0,-7.24c0,-1.26 0.52,-3.22 1.62,-3.22s1.41,1.27 1.41,2.58l0,7.88l5.18,0l0,-8.55c0.04,-3.77 -1.29,-6.29 -4.78,-6.29z" id="svg_1"/>
   <path d="m158.969965,18.452566a4.44,4.44 0 0 0 -4,3c-0.29,0.66 -0.38,1.17 -0.61,1.17s-0.11,-0.57 -0.37,-1.44a3.57,3.57 0 0 0 -3.76,-2.72c-2.43,0 -3.47,2.05 -4,3.18c-0.34,0.77 -0.34,1 -0.6,1s-0.06,-0.61 0.11,-1.33a6.07,6.07 0 0 0 0.08,-2.5l-3.85,0l0,14.48l5.25,0l0,-7.2c0,-1.42 0.6,-3.22 1.61,-3.22c1.18,0 1.42,0.91 1.42,2.58l0,7.84l5.27,0l0,-7.24c0,-1.26 0.52,-3.22 1.62,-3.22s1.41,1.27 1.41,2.58l0,7.88l5.18,0l0,-8.55c0.06,-3.77 -1.28,-6.29 -4.76,-6.29z" id="svg_2"/>
   <path d="m83.589965,18.452566a16.5,16.5 0 0 0 -6.91,1.48l0,4.36s3.18,-1.83 5.77,-1.83c2.07,0 2.32,1.11 2.23,2a11.22,11.22 0 0 0 -2.42,-0.16c-4.28,0 -6.44,1.94 -6.44,5.06a4.19,4.19 0 0 0 4.48,4.2a4.93,4.93 0 0 0 4.7,-3c0.28,-0.66 0.33,-1.1 0.58,-1.1s0.19,0.32 0.18,1a10.54,10.54 0 0 0 0.21,2.83l4,0l0,-7.15c-0.04,-4.45 -1.6,-7.69 -6.38,-7.69zm-1.28,11.42c-1.26,0.29 -1.91,-0.09 -1.91,-0.93c0,-1.14 1.18,-1.59 2.87,-1.59c0.74,0 1.44,0.06 1.44,0.06a3.73,3.73 0 0 1 -2.4,2.46z" id="svg_3"/>
   <rect height="18.86" id="svg_4" width="5.25" x="98.579965" y="14.402566"/>
   <path d="m109.619965,26.022566c0,-1.3 1.21,-2.48 3.43,-2.48a9.57,9.57 0 0 1 4.8,1.43l0,-5s-1.54,-1.48 -5.32,-1.48c-4,0 -7.29,2.33 -7.29,7.35s3,7.79 7.28,7.79a8.32,8.32 0 0 0 5.33,-1.83l0,-4.83a9.09,9.09 0 0 1 -4.78,1.58c-2.54,0 -3.45,-1.17 -3.45,-2.53z" id="svg_5"/>
   <path d="m128.489965,18.452566c-3,0 -4.2,2.88 -4.43,3.38s-0.35,0.79 -0.54,0.79c-0.34,0 -0.1,-0.62 0,-1a17.18,17.18 0 0 0 0.76,-5a6.66,6.66 0 0 0 -0.22,-2.16l-4.54,0l0,18.83l5.26,0l0,-7.2c0,-1.18 0.47,-3.23 1.79,-3.23c1.1,0 1.44,0.82 1.44,2.45l0,8l5.25,0l0,-7.71c0.03,-3.72 -0.58,-7.15 -4.77,-7.15z" id="svg_6"/>
   <path d="m134.999965,18.802566l0,14.49l5.25,0l0,-14.49a5.51,5.51 0 0 1 -2.62,0.52a5.58,5.58 0 0 1 -2.63,-0.52z" id="svg_7"/>
   <ellipse cx="137.609965" cy="16.352566" id="svg_8" rx="3.22" ry="2.1"/>
   <path d="m91.629965,18.802566l0,14.49l5.25,0l0,-14.49a5.51,5.51 0 0 1 -2.62,0.52a5.58,5.58 0 0 1 -2.63,-0.52z" id="svg_9"/>
   <ellipse cx="94.239965" cy="16.352566" id="svg_10" rx="3.22" ry="2.1"/>
   <path d="m174.219965,18.452566a4.88,4.88 0 0 0 -4.47,3.18c-0.36,0.76 -0.34,1 -0.6,1s-0.06,-0.61 0.1,-1.33a5.87,5.87 0 0 0 0.08,-2.5l-3.84,0l0,18.49l5.25,0l0,-5.89a4.11,4.11 0 0 0 3.55,2.18c3.8,0 5.71,-3.22 5.71,-7.56c0,-4.92 -2.29,-7.57 -5.78,-7.57zm-1.44,11.7c-1.2,0 -2.09,-1.53 -2.09,-3.66s0.91,-3.66 2.05,-3.66c1.46,0 2.08,1.35 2.08,3.66s-0.57,3.66 -2.04,3.66z" id="svg_11"/>
   <path d="m34.299965,22.822566a4.18,4.18 0 0 1 1,0a3.35,3.35 0 0 0 0,-1.9c-0.24,-1.15 -0.56,-1.85 -1.24,-1.74s-0.69,0.94 -0.45,2.1a3.8,3.8 0 0 0 0.69,1.54z" id="svg_12"/>
   <path d="m28.519965,23.732566c0.49,0.21 0.78,0.35 0.9,0.23s0.05,-0.22 -0.07,-0.41a2.74,2.74 0 0 0 -1.24,-1a3.36,3.36 0 0 0 -3.3,0.4c-0.33,0.23 -0.63,0.56 -0.59,0.76a0.2,0.2 0 0 0 0.18,0.13a20.64,20.64 0 0 1 2.26,-0.55a3.88,3.88 0 0 1 1.86,0.44z" id="svg_13"/>
   <path d="m27.549965,24.292566a2.29,2.29 0 0 0 -1.19,0.5a0.79,0.79 0 0 0 -0.31,0.48a0.13,0.13 0 0 0 0,0.11a0.13,0.13 0 0 0 0.1,0a1.89,1.89 0 0 0 0.46,-0.12a3.87,3.87 0 0 1 2,-0.21c0.32,0 0.47,0.05 0.54,-0.06s0,-0.09 0,-0.2a1.86,1.86 0 0 0 -1.6,-0.5z" id="svg_14"/>
   <path d="m32.369965,26.292566a0.77,0.77 0 0 0 1,-0.16c0.15,-0.31 -0.07,-0.73 -0.5,-0.94a0.76,0.76 0 0 0 -1,0.18c-0.17,0.31 0.05,0.73 0.5,0.92z" id="svg_15"/>
   <path d="m35.089965,23.922566c-0.35,0 -0.63,0.38 -0.64,0.85s0.26,0.86 0.61,0.87s0.63,-0.37 0.64,-0.85s-0.27,-0.86 -0.61,-0.87z" id="svg_16"/>
   <path d="m11.849965,32.482566c-0.09,-0.11 -0.23,-0.08 -0.37,0a1,1 0 0 1 -0.32,0a0.71,0.71 0 0 1 -0.59,-0.3a1.08,1.08 0 0 1 0,-1l0.08,-0.18a3,3 0 0 0 0.25,-2.71a2.32,2.32 0 0 0 -3.79,-0.59a2.9,2.9 0 0 0 -0.74,2.4c0.06,0.14 0.14,0.19 0.21,0.19s0.32,-0.07 0.44,-0.4a0.62,0.62 0 0 0 0,-0.1a3.87,3.87 0 0 1 0.32,-0.75a1.39,1.39 0 0 1 1.93,-0.4a1.36,1.36 0 0 1 0.54,1.65a3.88,3.88 0 0 0 -0.27,1.46a1.45,1.45 0 0 0 1.29,1.54a1.1,1.1 0 0 0 1,-0.52a0.21,0.21 0 0 0 0.02,-0.29z" id="svg_17"/>
   <path d="m43.819965,30.592566c0,-0.07 -0.16,-0.58 -0.35,-1.18a9.91,9.91 0 0 0 -0.38,-1a3.77,3.77 0 0 0 0.67,-2.72a3.53,3.53 0 0 0 -1,-1.95a8.22,8.22 0 0 0 -3.54,-1.75l-0.9,-0.25s0,-2.12 -0.08,-3a10.64,10.64 0 0 0 -0.4,-2.65a7.2,7.2 0 0 0 -1.84,-3.28c2.24,-2.32 3.64,-4.88 3.64,-7.08c0,-4.22 -5.19,-5.5 -11.59,-2.86l-1.35,0.58l-2.49,-2.44c-7.29,-6.35 -30.08,19 -22.79,25.13l1.59,1.35a7.79,7.79 0 0 0 -0.44,3.62a7.12,7.12 0 0 0 2.46,4.57a7.48,7.48 0 0 0 4.82,1.94c2.84,6.53 9.32,10.54 16.91,10.77c8.15,0.24 15,-3.58 17.86,-10.45a14.38,14.38 0 0 0 1,-4.57c-0.02,-1.98 -1.11,-2.78 -1.8,-2.78zm-33.34,5.14a3.84,3.84 0 0 1 -0.76,0.06a5.87,5.87 0 0 1 -5.35,-4.91c-0.29,-2.91 1.19,-5.14 3.82,-5.67a4.18,4.18 0 0 1 1.1,-0.08c1.47,0.08 3.64,1.21 4.14,4.42c0.41,2.84 -0.29,5.74 -2.95,6.18zm-2.75,-12.26a6.27,6.27 0 0 0 -4,2.53a10.13,10.13 0 0 1 -1.68,-1.63c-1.41,-2.67 1.53,-7.86 3.59,-10.8c5.12,-7.28 13.08,-12.74 16.73,-11.74c0.6,0.17 2.58,2.47 2.58,2.47a51.88,51.88 0 0 0 -7.1,4.89a32.19,32.19 0 0 0 -10.12,14.28zm25.83,11.18a0.16,0.16 0 0 0 0.09,-0.15a0.15,0.15 0 0 0 -0.15,-0.12a17.28,17.28 0 0 1 -7.5,-0.76c0.4,-1.29 1.45,-0.82 3,-0.7a21.94,21.94 0 0 0 7.37,-0.79a16.9,16.9 0 0 0 5.5,-2.73a10.91,10.91 0 0 1 0.77,2.61a1.32,1.32 0 0 1 0.8,0.15c0.35,0.21 0.61,0.66 0.43,1.81a10,10 0 0 1 -2.79,5.48a11.68,11.68 0 0 1 -3.36,2.51a14,14 0 0 1 -2.2,0.93c-5.74,1.88 -11.65,-0.19 -13.56,-4.6a7.73,7.73 0 0 1 -0.38,-1.05a9.24,9.24 0 0 1 2,-8.67l0,0a0.76,0.76 0 0 0 0.27,-0.52a0.9,0.9 0 0 0 -0.21,-0.49c-0.75,-1.09 -3.36,-3 -2.84,-6.56a4.93,4.93 0 0 1 4.76,-4.31l0.53,0c0.92,0.06 1.72,0.17 2.47,0.21a5,5 0 0 0 3.81,-1.26a2.81,2.81 0 0 1 1.43,-0.81a1.61,1.61 0 0 1 0.54,0a1.76,1.76 0 0 1 0.93,0.29c1.07,0.72 1.22,2.45 1.28,3.72c0,0.73 0.12,2.48 0.15,3c0.07,1.15 0.37,1.32 1,1.52l1.14,0.33a6.42,6.42 0 0 1 2.8,1.32a1.74,1.74 0 0 1 0.51,1c0.17,1.22 -1,2.74 -3.92,4.11a19.85,19.85 0 0 1 -9.88,1.59l-1,-0.11c-2.17,-0.29 -3.41,2.51 -2.1,4.44c0.84,1.24 3.13,2 5.42,2c5.25,0 9.28,-2.24 10.79,-4.17l0.12,-0.18c0.07,-0.11 0,-0.17 -0.08,-0.1c-1.23,0.83 -6.68,4.17 -12.51,3.16a7.37,7.37 0 0 1 -1.35,-0.36a2.43,2.43 0 0 1 -1.72,-1.8c4.68,1.43 7.64,0.06 7.64,0.06zm-7.45,-0.88zm-9,-20.23a21.36,21.36 0 0 1 6,-4.92a0.08,0.08 0 0 1 0.1,0.11a5.81,5.81 0 0 0 -0.56,1.36a0.09,0.09 0 0 0 0.13,0.09a11.7,11.7 0 0 1 5.32,-1.89a0.08,0.08 0 0 1 0.05,0.15a4.66,4.66 0 0 0 -0.78,0.85a0.08,0.08 0 0 0 0.06,0.13a10.42,10.42 0 0 1 4.42,1.16a0.11,0.11 0 0 1 -0.07,0.19a17.79,17.79 0 0 0 -8,0a18.35,18.35 0 0 0 -6.5,2.87a0.08,0.08 0 0 1 -0.16,-0.1l-0.01,0z" id="svg_18"/>
  </g>
 </g>
</svg>