<?xml version="1.0"?>
<svg width="896" height="236" xmlns="http://www.w3.org/2000/svg" xmlns:svg="http://www.w3.org/2000/svg">
 <!-- Created with SVG-edit - https://github.com/SVG-Edit/svgedit-->
 <g class="layer">
  <title>Layer 1</title>
  <g id="svg_1">
   <path d="m117.172,125.237c-14.953,0 -26.834,6.208 -35.233,18.41c-5.736,-11.56 -17.207,-18.624 -29.703,-18.41c-11.881,-0.429 -23.148,4.923 -30.727,14.557l0,-2.141c0,-6.208 -4.916,-11.346 -10.857,-11.346c-5.94,0 -10.652,5.138 -10.652,11.346l0,86.274c0.205,6.208 5.326,11.132 11.267,10.704c5.531,-0.214 10.037,-4.924 10.242,-10.704l0,-59.728c4.916,-8.349 12.291,-17.769 25.606,-17.769c12.7,0 17.617,6.423 17.617,23.121l0,54.376c0.205,6.208 5.326,11.132 11.266,10.704c5.531,-0.214 10.038,-4.924 10.243,-10.704l0,-59.728c4.916,-8.349 12.29,-17.769 25.605,-17.769c12.701,0 17.617,6.423 17.617,23.121l0,54.376c0.205,6.208 5.326,11.132 11.267,10.704c5.531,-0.214 10.037,-4.924 10.242,-10.704l0,-58.015c0.41,-19.696 -10.242,-40.675 -33.8,-40.675z" fill="#111111" id="svg_2"/>
   <path d="m220.412,125.235c-11.676,0 -23.352,2.569 -34.004,7.493c-3.892,1.499 -6.351,5.352 -6.351,9.634c0,5.352 3.892,9.633 9.014,9.847l0.204,0c1.025,0 2.049,-0.214 3.073,-0.428c7.989,-2.997 16.388,-4.71 24.991,-4.71c16.593,0 23.558,6.423 23.762,22.264l-21.304,0c-28.883,-0.214 -46.295,12.631 -46.295,34.467c0,21.194 16.798,32.326 33.39,32.326c12.496,0.428 24.582,-4.067 34.209,-12.416l0,0.214c0.205,6.208 5.326,11.132 11.267,10.704c5.531,-0.214 10.037,-4.924 10.242,-10.704l0,-56.945c0,-20.766 -13.11,-41.746 -42.198,-41.746zm-6.965,90.556c-12.086,0 -18.436,-4.71 -18.436,-13.915c0,-3.426 0,-13.702 27.04,-13.702l19.05,0l0,13.916c-5.735,6.422 -16.182,13.701 -27.654,13.701z" fill="#111111" id="svg_3"/>
   <path d="m303.787,84.99l1.229,0c6.555,0 11.881,5.566 11.881,12.417l0,0.856c0,6.851 -5.326,12.417 -11.881,12.417l-1.229,0c-6.555,0 -11.881,-5.566 -11.881,-12.417l0,-0.856c0,-6.851 5.326,-12.417 11.881,-12.417z" fill="#111111" id="svg_4"/>
   <path d="m304.198,126.091c-5.94,0 -10.652,4.923 -10.652,11.132l0,0.214l0,86.274c0.205,6.208 5.326,11.132 11.267,10.704c5.531,-0.214 10.037,-4.924 10.242,-10.704l0,-86.274c0,-6.209 -4.711,-11.346 -10.857,-11.346z" fill="#111111" id="svg_5"/>
   <path d="m358.892,81.777c-5.941,0 -10.652,4.924 -10.652,11.133l0,0.214l0,130.588c0.204,6.208 5.326,11.132 11.266,10.704c5.531,-0.214 10.038,-4.924 10.242,-10.704l0,-130.588c0,-6.209 -4.711,-11.347 -10.652,-11.347c-0.204,0 -0.204,0 -0.204,0z" fill="#111111" id="svg_6"/>
   <path d="m444.312,125.235c-15.364,0 -28.064,5.994 -36.668,17.341c-7.374,9.847 -11.471,23.334 -11.471,38.106c0,34.681 19.46,55.446 51.826,55.446c17.822,0 26.63,-4.281 34.824,-9.205c3.482,-1.713 5.735,-5.352 6.145,-9.42c0,-5.566 -4.302,-10.061 -9.423,-10.061l-0.205,0c-1.434,0 -3.072,0.214 -4.301,1.07c-7.785,4.282 -16.388,6.208 -24.992,5.994c-18.026,0 -28.678,-8.777 -31.341,-25.475l62.683,0c5.736,0.214 10.652,-4.496 10.857,-10.49c0,-0.214 0,-0.428 0,-0.856c0,-35.966 -24.787,-52.45 -47.934,-52.45zm0,19.695c9.013,0 24.172,5.352 26.22,25.048l-52.441,0c2.049,-17.341 14.34,-25.048 26.221,-25.048z" fill="#111111" id="svg_7"/>
   <path d="m567.013,125.237l-1.024,0c-10.242,0 -19.665,5.138 -28.269,14.986l0,-2.569c0,-6.208 -4.916,-11.346 -10.856,-11.346c-5.941,0 -10.857,5.138 -10.652,11.346l0,86.274c0.204,6.208 5.326,11.132 11.266,10.704c5.531,-0.214 10.038,-4.924 10.242,-10.704l0,-60.585c6.965,-10.489 16.798,-16.27 27.859,-16.27l1.025,0c5.735,0.429 10.447,-4.067 10.857,-10.061c0,-0.214 0,-0.428 0,-0.642c0.204,-5.995 -4.507,-11.133 -10.243,-11.347c0,0.214 -0.205,0.214 -0.205,0.214z" fill="#111111" id="svg_8"/>
   <path d="m865.272,0l-217.959,0c-17.002,0 -30.727,14.343 -30.727,32.112l0,204.017l42.403,-43.886l206.483,0c17,0 30.73,-14.343 30.73,-32.112l0,-128.019c-0.21,-17.769 -13.93,-32.112 -30.93,-32.112zm-183.34,143.861c0,4.71 -3.687,8.563 -8.194,8.563c-4.506,0 -8.193,-3.853 -8.193,-8.563l0,-90.984c0,-4.709 3.687,-8.563 8.193,-8.563c4.507,0 8.194,3.854 8.194,8.563l0,90.984zm38.102,0c0,4.71 -3.688,8.563 -8.194,8.563c-4.507,0 -8.194,-3.853 -8.194,-8.563l0,-60.156c0,-4.71 3.687,-8.563 8.194,-8.563c4.506,0 8.194,3.853 8.194,8.563l0,60.156zm1.024,-87.558c0,5.138 -3.892,9.205 -8.809,9.205l-0.819,0c-4.916,0 -8.808,-4.067 -8.808,-9.205l0,-0.643c0,-5.137 3.892,-9.205 8.808,-9.205l0.819,0c4.917,0 8.809,4.068 8.809,9.205l0,0.643zm57.766,93.98c-3.687,1.927 -7.784,2.783 -12.085,2.783c-14.135,0 -21.714,-7.064 -21.714,-20.551l0,-41.317l-7.375,0c-2.458,0 -4.506,-1.927 -4.506,-4.496l0,-0.214c0,-1.499 0.819,-2.997 2.048,-4.068l18.232,-18.625c1.024,-1.07 2.253,-1.712 3.687,-1.926c2.458,0 4.711,2.141 4.711,4.709c0,0 0,0 0,0.215l0,8.991l13.11,0c4.097,0 7.375,3.425 7.375,7.707c0,4.281 -3.278,7.707 -7.375,7.707l-13.11,0l0,40.246c0,5.781 2.868,6.209 6.76,6.209c1.639,0 3.278,-0.214 4.712,-0.643c1.024,-0.428 2.253,-0.428 3.277,-0.642c3.687,0 6.76,3.211 6.965,7.279c-0.41,2.783 -2.253,5.566 -4.712,6.636zm50.188,-13.273c5.94,0.215 11.881,-1.284 17.207,-4.067c1.024,-0.642 2.253,-0.856 3.273,-0.856c4.1,0 7.38,3.211 7.38,7.492c0,0 0,0 0,0.215c-0.21,2.997 -1.84,5.78 -4.51,7.064c-5.733,3.425 -11.879,6.422 -24.579,6.422c-22.943,0 -36.873,-14.771 -36.873,-39.39c0,-28.901 18.437,-39.391 34.005,-39.391c23.357,0 34.007,19.482 34.007,37.464c0.2,4.496 -3.28,8.349 -7.58,8.563c-0.21,0 -0.41,0 -0.62,0l-43.014,0c2.253,10.704 9.628,16.484 21.304,16.484z" fill="#09C269" id="svg_9"/>
   <path d="m825.327,89.698c-9.013,-0.214 -16.592,6.851 -17.412,16.27l35.029,0c-1.024,-9.419 -8.604,-16.484 -17.617,-16.27z" fill="#09C269" id="svg_10"/>
  </g>
 </g>
</svg>