<?xml version="1.0"?>
<svg width="180" height="32" xmlns="http://www.w3.org/2000/svg" xmlns:svg="http://www.w3.org/2000/svg">
 <g class="layer">
  <title>Layer 1</title>
  <g id="svg_1">
   <polygon fill="#FFFFFF" id="svg_2" points="31.200000762939453,0 10.400001525878906,0 10.400001525878906,10.39999771118164 0,10.39999771118164 0,31.200000762939453 20.799999237060547,31.200000762939453 20.799999237060547,20.799999237060547 31.200000762939453,20.799999237060547 "/>
   <polygon fill="#00B3E3" id="svg_3" opacity="0.4" points="0,10.39999771118164 0,20.799999237060547 10.400001525878906,20.799999237060547 10.400001525878906,31.200000762939453 20.799999237060547,31.200000762939453 20.799999237060547,10.39999771118164 "/>
   <path d="m37.1,26.899999l4.5,-3.6c1.3,2.2 3.3,3.5 5.6,3.5c2.5,0 3.9,-1.6 3.9,-3.4c0,-2.1 -2.6,-2.8 -5.4,-3.7c-3.5,-1.1 -7.4,-2.4 -7.4,-7.4c0,-4.2 3.6,-7.5 8.7,-7.5c4.2,0 6.7,1.6 8.8,3.8l-4.1,3.1c-1.1,-1.6 -2.6,-2.5 -4.6,-2.5c-2.3,0 -3.6,1.2 -3.6,2.9c0,2 2.5,2.7 5.3,3.6c3.5,1.1 7.5,2.7 7.5,7.7c0,4.1 -3.3,8.1 -9,8.1c-4.7,0.1 -7.9,-1.9 -10.2,-4.6zm39.9,-13.5l4.8,0l0,2c1.1,-1.5 2.9,-2.4 4.9,-2.4c4.2,0 6.7,2.7 6.7,7.3l0,10.9l-5,0l0,-10.2c0,-2.4 -1.1,-3.8 -3.3,-3.8c-1.9,0 -3.4,1.3 -3.4,4.3l0,9.7l-4.7,0l0,-17.8zm17.6,8.9c0,-6.3 4.6,-9.3 8.7,-9.3c2.3,0 4.1,0.9 5.3,2.1l0,-9.9l4.9,0l0,26l-4.9,0l0,-2c-1.2,1.4 -3.1,2.4 -5.4,2.4c-3.8,0 -8.6,-3 -8.6,-9.3zm14.1,0c0,-2.6 -1.9,-4.8 -4.6,-4.8c-2.7,0 -4.8,2 -4.8,4.8c0,2.7 2.1,4.8 4.8,4.8c2.7,0 4.6,-2.2 4.6,-4.8zm5.9,-4.1c0,-7.4 5.6,-13.4 13.3,-13.4c3.9,0 7.1,1.4 9.4,3.6c1,0.9 1.8,1.9 2.4,3.1l-4.3,2.6c-1.6,-3 -4.1,-4.5 -7.5,-4.5c-4.7,0 -8.4,3.9 -8.4,8.6c0,4.8 3.6,8.6 8.6,8.6c3.8,0 6.5,-2.1 7.4,-5.5l-8.2,0l0,-4.7l13.5,0l0,2c0,7 -5,13 -12.7,13c-8.1,0 -13.5,-6.2 -13.5,-13.4zm27.5,-4.8l4.8,0l0,2.9c0.9,-1.9 2.5,-2.9 4.9,-2.9l2,0l-1.8,4.7l-1.3,0c-2.6,0 -3.7,1.4 -3.7,4.7l0,8.4l-4.9,0l0,-17.8zm13,0l4.9,0l0,17.8l-4.9,0l0,-13l-1.8,0l1.8,-4.8zm2.5,-2.7c1.6,0 2.9,-1.3 2.9,-2.9c0,-1.6 -1.3,-2.9 -2.9,-2.9c-1.6,0 -2.9,1.3 -2.9,2.9c-0.1,1.6 1.2,2.9 2.9,2.9zm3.5,11.6c0,-6.3 4.6,-9.3 8.7,-9.3c2.3,0 4.1,0.9 5.3,2.1l0,-9.9l4.9,0l0,26l-4.9,0l0,-2c-1.2,1.4 -3.1,2.4 -5.4,2.4c-3.7,0 -8.6,-3 -8.6,-9.3zm14.2,0c0,-2.6 -1.9,-4.8 -4.6,-4.8c-2.7,0 -4.8,2 -4.8,4.8c0,2.7 2.1,4.8 4.8,4.8c2.6,0 4.6,-2.2 4.6,-4.8zm-99.5,0c0,-5.1 -3.7,-9.2 -9.2,-9.2c-5.1,0 -9.3,4.1 -9.3,9.3c0,5.1 3.9,9.3 9.4,9.3c3.9,0 6.6,-1.9 8.2,-4.5l-3.9,-2.3c-0.8,1.6 -2.4,2.6 -4.3,2.6c-2.6,0 -4.2,-1.3 -4.7,-3.2l13.8,0l0,-2zm-13.5,-2.2c0.7,-1.7 2.3,-2.8 4.4,-2.8c2.1,0 3.6,1 4.2,2.8l-8.6,0z" fill="#263746" id="svg_4"/>
   <rect fill="#1A82E2" height="10.4" id="svg_5" width="10.4" x="0" y="20.799999"/>
   <polygon fill="#00B3E3" id="svg_6" points="20.799999237060547,10.39999771118164 20.799999237060547,0 10.400001525878906,0 10.400001525878906,10.39999771118164 10.400001525878906,20.799999237060547 20.799999237060547,20.799999237060547 31.200000762939453,20.799999237060547 31.200000762939453,10.39999771118164 "/>
   <rect fill="#1A82E2" height="10.4" id="svg_7" width="10.4" x="20.8" y="-0.000001"/>
  </g>
 </g>
</svg>